<svg width="169" height="73" viewBox="0 0 169 73" fill="none" xmlns="http://www.w3.org/2000/svg">
<g filter="url(#filter0_d_719_2468)">
<path d="M152 51.9978C152 52.5079 151.899 53.013 151.704 53.4842C151.508 53.9554 151.222 54.3836 150.861 54.7441C150.5 55.1046 150.072 55.3904 149.6 55.5852C149.128 55.78 148.623 55.88 148.113 55.8795H20.9247C19.8939 55.8805 18.9048 55.4722 18.175 54.7444C17.4453 54.0165 17.0345 53.0286 17.0332 51.9981V21.0447C17.0345 20.0136 17.4451 19.0253 18.1747 18.2966C18.9044 17.5679 19.8934 17.1585 20.9247 17.1582H148.112C148.623 17.1582 149.128 17.2587 149.6 17.454C150.071 17.6493 150.5 17.9356 150.861 18.2965C151.222 18.6574 151.508 19.0859 151.703 19.5574C151.899 20.0289 151.999 20.5343 151.999 21.0447L152 51.9978Z" fill="#373435"/>
<path d="M46.6732 36.3059C46.6438 33.0395 49.3485 31.4504 49.4721 31.3764C47.9404 29.1439 45.5663 28.839 44.732 28.8146C42.7381 28.6047 40.804 30.0074 39.7881 30.0074C38.7521 30.0074 37.1881 28.8347 35.5024 28.8694C33.333 28.9028 31.3034 30.1586 30.1905 32.1082C27.8934 36.084 29.6066 41.9264 31.8072 45.1399C32.9082 46.7148 34.1944 48.4711 35.8783 48.4093C37.5257 48.3424 38.1409 47.3604 40.1287 47.3604C42.0983 47.3604 42.6763 48.4091 44.3934 48.3698C46.1613 48.3424 47.2743 46.7888 48.3368 45.2007C49.6088 43.3977 50.12 41.6204 50.1402 41.529C50.0997 41.5148 46.7077 40.2197 46.6732 36.3059ZM43.4293 26.7004C44.3154 25.5928 44.9215 24.0857 44.7533 22.5566C43.4709 22.6134 41.8673 23.4432 40.9438 24.5267C40.1267 25.4814 39.397 27.0462 39.5854 28.5175C41.0259 28.6249 42.5048 27.7911 43.4293 26.7004Z" fill="white"/>
<path d="M70.5285 48.1845H68.2264L66.9653 44.2231H62.5821L61.3807 48.1845H59.1396L63.4833 34.6979H66.1656L70.5285 48.1845ZM66.5853 42.5612L65.4448 39.0395C65.3242 38.6798 65.097 37.8323 64.7647 36.4988H64.7242C64.5902 37.0725 64.3764 37.9197 64.0833 39.0393L62.9623 42.5612H66.5853ZM81.6773 43.2026C81.6773 44.8565 81.2282 46.1638 80.329 47.1235C79.5241 47.9778 78.5236 48.4046 77.3303 48.4046C76.0421 48.4046 75.1156 47.9454 74.5528 47.0252V52.128H72.3917V41.6562C72.3917 40.6172 72.3644 39.5522 72.3117 38.4597H74.2124L74.3329 40.0012H74.3734C75.0943 38.8399 76.188 38.2591 77.6561 38.2591C78.8035 38.2591 79.7614 38.712 80.5276 39.6193C81.293 40.5281 81.6773 41.7221 81.6773 43.2026ZM79.4754 43.2816C79.4754 42.3351 79.2627 41.5547 78.8346 40.9397C78.3676 40.3001 77.7399 39.9797 76.9534 39.9797C76.42 39.9797 75.9355 40.1583 75.5029 40.5099C75.069 40.8645 74.785 41.328 74.6523 41.9014C74.593 42.116 74.5592 42.3368 74.5518 42.5592V44.1815C74.5518 44.8882 74.7688 45.4849 75.2027 45.9733C75.6366 46.4596 76.2002 46.704 76.8934 46.704C77.7075 46.704 78.3412 46.3889 78.7944 45.7636C79.2482 45.1362 79.4754 44.3092 79.4754 43.2816ZM92.8656 43.2026C92.8656 44.8565 92.4165 46.1638 91.5173 47.1235C90.7113 47.9778 89.7119 48.4046 88.5176 48.4046C87.2294 48.4046 86.3028 47.9454 85.74 47.0252V52.128H83.579V41.6562C83.579 40.6172 83.5516 39.5522 83.4989 38.4597H85.3996L85.5202 40.0012H85.5607C86.2803 38.8399 87.3743 38.2591 88.8431 38.2591C89.9895 38.2591 90.9474 38.712 91.7159 39.6193C92.4803 40.5281 92.8656 41.7221 92.8656 43.2026ZM90.6627 43.2816C90.6627 42.3351 90.4487 41.5547 90.0209 40.9397C89.5536 40.3001 88.9282 39.9797 88.1415 39.9797C87.6083 39.9797 87.1238 40.1583 86.6889 40.5099C86.255 40.8645 85.972 41.328 85.8396 41.9014C85.7737 42.1689 85.7383 42.3867 85.7383 42.5592V44.1815C85.7383 44.8882 85.9561 45.4849 86.388 45.9733C86.8218 46.4588 87.3854 46.704 88.0807 46.704C88.8958 46.704 89.5295 46.3889 89.9814 45.7636C90.4355 45.1362 90.6627 44.3092 90.6627 43.2816ZM105.374 44.4016C105.374 45.5498 104.973 46.4832 104.175 47.2038C103.298 47.99 102.072 48.3841 100.501 48.3841C99.0491 48.3841 97.8852 48.1047 97.0073 47.5442L97.5071 45.7433C98.4549 46.3048 99.4961 46.5842 100.629 46.5842C101.444 46.5842 102.078 46.4001 102.53 46.0341C102.983 45.6673 103.212 45.1767 103.212 44.5648C103.212 44.0164 103.023 43.5574 102.651 43.1833C102.277 42.8105 101.658 42.4627 100.789 42.1436C98.4275 41.2629 97.2457 39.9749 97.2457 38.2804C97.2457 37.1735 97.6634 36.2678 98.4967 35.5593C99.33 34.8519 100.435 34.498 101.809 34.498C103.037 34.498 104.06 34.7121 104.872 35.1389L104.329 36.9C103.565 36.4866 102.702 36.2799 101.737 36.2799C100.975 36.2799 100.377 36.4674 99.949 36.8402C99.5894 37.1738 99.407 37.5801 99.407 38.0626C99.407 38.5945 99.6147 39.0365 100.028 39.383C100.387 39.7021 101.042 40.0499 101.989 40.4227C103.15 40.8911 104.004 41.4361 104.55 42.0625C105.101 42.6889 105.374 43.4703 105.374 44.4016ZM112.538 40.0813H110.156V44.8028C110.156 46.0037 110.576 46.6027 111.417 46.6027C111.803 46.6027 112.124 46.5703 112.377 46.5024L112.437 48.1432C112.011 48.3023 111.451 48.3823 110.756 48.3823C109.903 48.3823 109.236 48.1219 108.754 47.6009C108.275 47.0799 108.033 46.2076 108.033 44.9794V40.077H106.614V38.4557H108.033V36.6751L110.156 36.0345V38.4559H112.538V40.0813ZM123.265 43.2423C123.265 44.7367 122.837 45.9642 121.984 46.9239C121.091 47.912 119.903 48.4046 118.422 48.4046C116.993 48.4046 115.856 47.9312 115.009 46.9857C114.161 46.0384 113.738 44.8444 113.738 43.4042C113.738 41.8971 114.175 40.6628 115.048 39.7031C115.923 38.7424 117.101 38.2619 118.582 38.2619C120.009 38.2619 121.156 38.7363 122.024 39.6829C122.853 40.601 123.265 41.7872 123.265 43.2423ZM121.025 43.2917C121.025 42.4009 120.833 41.637 120.446 40.9974C119.993 40.2252 119.344 39.8391 118.504 39.8391C117.638 39.8391 116.974 40.2252 116.522 40.9974C116.135 41.637 115.942 42.4141 115.942 43.3322C115.942 44.2241 116.135 44.9903 116.522 45.6278C116.99 46.4001 117.641 46.7861 118.486 46.7861C119.312 46.7861 119.96 46.392 120.428 45.6083C120.826 44.9538 121.025 44.1848 121.025 43.2917ZM130.293 40.3599C130.068 40.3193 129.84 40.2993 129.612 40.3001C128.852 40.3001 128.264 40.5858 127.85 41.1616C127.491 41.6681 127.311 42.309 127.311 43.082V48.1848H125.15V41.5222C125.152 40.5014 125.131 39.4807 125.087 38.4607H126.969L127.048 40.3214H127.108C127.337 39.6819 127.696 39.1662 128.189 38.7799C128.64 38.4426 129.188 38.2599 129.751 38.2591C129.951 38.2591 130.131 38.2733 130.291 38.2986L130.293 40.3599ZM139.959 42.8621C139.964 43.1906 139.938 43.5188 139.88 43.8421H133.396C133.421 44.8028 133.735 45.5386 134.337 46.0452C134.883 46.4973 135.59 46.7243 136.458 46.7243C137.418 46.7243 138.293 46.5723 139.081 46.2653L139.42 47.764C138.499 48.1655 137.412 48.3651 136.159 48.3651C134.65 48.3651 133.466 47.9211 132.605 47.0353C131.745 46.1488 131.314 44.9568 131.314 43.464C131.314 41.9987 131.714 40.7776 132.516 39.8037C133.356 38.7637 134.49 38.2439 135.917 38.2439C137.319 38.2439 138.381 38.7637 139.101 39.8037C139.672 40.6274 139.959 41.6491 139.959 42.8621ZM137.898 42.3016C137.913 41.6603 137.771 41.1079 137.479 40.6405C137.104 40.0387 136.529 39.7388 135.757 39.7388C135.051 39.7388 134.475 40.0316 134.037 40.6193C133.677 41.0866 133.463 41.6481 133.397 42.2996L137.898 42.3016ZM61.9588 29.9297C61.3574 29.9297 60.8374 29.9003 60.4046 29.8507V23.3303C61.01 23.2368 61.6218 23.1907 62.2343 23.1925C64.713 23.1925 65.8543 24.4116 65.8543 26.3989C65.8543 28.6912 64.5061 29.9297 61.9588 29.9297ZM62.3215 24.0284C61.9871 24.0284 61.7022 24.0486 61.4661 24.0975V29.0541C61.5938 29.0744 61.8389 29.0835 62.1837 29.0835C63.8078 29.0835 64.7323 28.159 64.7323 26.4283C64.7323 24.8847 63.8959 24.0284 62.3215 24.0284ZM69.4115 29.9794C68.0146 29.9794 67.1091 28.9366 67.1091 27.5207C67.1091 26.0453 68.0336 24.9931 69.4905 24.9931C70.8672 24.9931 71.7927 25.9865 71.7927 27.4427C71.7927 28.9366 70.8388 29.9794 69.4115 29.9794ZM69.452 25.7697C68.6846 25.7697 68.1929 26.487 68.1929 27.4903C68.1929 28.4743 68.6947 29.1919 69.4417 29.1919C70.1886 29.1919 70.6906 28.4247 70.6906 27.47C70.6906 26.4974 70.1993 25.7697 69.452 25.7697ZM79.7584 25.0917L78.2629 29.871H77.2888L76.6695 27.7955C76.5155 27.2878 76.3872 26.7726 76.2853 26.252H76.265C76.187 26.7727 76.0391 27.2948 75.8818 27.7955L75.223 29.871H74.2387L72.8317 25.0914H73.9234L74.4646 27.3637C74.5925 27.9049 74.6999 28.4156 74.7891 28.8981H74.8094C74.8874 28.4956 75.015 27.9931 75.2027 27.3738L75.8818 25.0927H76.7475L77.3975 27.3252C77.5481 27.844 77.6762 28.3692 77.7814 28.8991H77.8098C77.879 28.4077 77.9871 27.8857 78.1343 27.3252L78.7151 25.0927L79.7584 25.0917ZM85.2626 29.871H84.2003V27.1266C84.2003 26.2814 83.8761 25.8576 83.2363 25.8576C82.6068 25.8576 82.174 26.3989 82.174 27.0283V29.871H81.1114V26.4574C81.1114 26.0349 81.1013 25.5818 81.0719 25.0904H82.0066L82.0562 25.828H82.0858C82.3715 25.3173 82.9513 24.9929 83.6013 24.9929C84.6048 24.9929 85.2636 25.7603 85.2636 27.0088L85.2626 29.871ZM88.1924 29.871H87.1288V22.8984H88.1924V29.871ZM92.0657 29.9794C90.6698 29.9794 89.7633 28.9366 89.7633 27.5207C89.7633 26.0453 90.6878 24.9931 92.1437 24.9931C93.5213 24.9931 94.4458 25.9865 94.4458 27.4427C94.4468 28.9366 93.4919 29.9794 92.0657 29.9794ZM92.1052 25.7697C91.3377 25.7697 90.8463 26.487 90.8463 27.4903C90.8463 28.4743 91.3489 29.1919 92.094 29.1919C92.842 29.1919 93.3427 28.4247 93.3427 27.47C93.344 26.4974 92.8531 25.7697 92.1052 25.7697ZM98.6345 29.871L98.5575 29.3206H98.5291C98.2046 29.7636 97.7312 29.9791 97.1309 29.9791C96.2746 29.9791 95.6662 29.3793 95.6662 28.5726C95.6662 27.393 96.6892 26.7829 98.4599 26.7829V26.6947C98.4599 26.0656 98.1266 25.7502 97.4676 25.7502C96.9964 25.7502 96.5826 25.8688 96.2188 26.1048L96.0028 25.4068C96.4448 25.1312 96.9962 24.9931 97.6441 24.9931C98.8928 24.9931 99.5235 25.6519 99.5235 26.9706V28.7309C99.5235 29.2132 99.5448 29.587 99.5924 29.872L98.6345 29.871ZM98.4883 27.4903C97.3085 27.4903 96.7166 27.7763 96.7166 28.4541C96.7166 28.9556 97.0215 29.201 97.4453 29.201C97.9855 29.201 98.4883 28.7887 98.4883 28.2281V27.4903ZM104.682 29.871L104.633 29.1035H104.603C104.298 29.6835 103.785 29.9794 103.068 29.9794C101.916 29.9794 101.062 28.966 101.062 27.5402C101.062 26.0453 101.947 24.9921 103.155 24.9921C103.795 24.9921 104.248 25.2082 104.504 25.6418H104.525V22.8987H105.589V28.5825C105.589 29.0447 105.6 29.4774 105.628 29.8707L104.682 29.871ZM104.525 27.0587C104.525 26.3898 104.082 25.8191 103.406 25.8191C102.618 25.8191 102.137 26.5174 102.137 27.5004C102.137 28.4642 102.636 29.124 103.385 29.124C104.053 29.124 104.525 28.5432 104.525 27.855L104.525 27.0587ZM112.331 29.9791C110.935 29.9791 110.029 28.9366 110.029 27.5207C110.029 26.0453 110.954 24.9931 112.41 24.9931C113.787 24.9931 114.712 25.9865 114.712 27.4427C114.713 28.9366 113.759 29.9791 112.331 29.9791ZM112.37 25.7695C111.604 25.7695 111.112 26.487 111.112 27.4903C111.112 28.4743 111.614 29.1919 112.36 29.1919C113.108 29.1919 113.609 28.4247 113.609 27.47C113.611 26.4974 113.119 25.7695 112.37 25.7695ZM120.425 29.871H119.362V27.1266C119.362 26.2814 119.037 25.8576 118.398 25.8576C117.768 25.8576 117.336 26.3989 117.336 27.0283V29.871H116.273V26.4574C116.273 26.0349 116.263 25.5818 116.233 25.0904H117.168L117.217 25.828H117.247C117.532 25.3173 118.113 24.9921 118.762 24.9921C119.765 24.9921 120.425 25.7591 120.425 27.0078V29.871ZM127.573 25.888H126.404V28.2089C126.404 28.7998 126.608 29.0946 127.022 29.0946C127.209 29.0946 127.367 29.0744 127.493 29.045L127.523 29.8517C127.317 29.9307 127.042 29.9703 126.699 29.9703C125.861 29.9703 125.361 29.508 125.361 28.298V25.888H124.663V25.0917H125.361V24.2158L126.404 23.9004V25.0904H127.572L127.573 25.888ZM133.196 29.871H132.135V27.1468C132.135 26.2915 131.812 25.8586 131.171 25.8586C130.621 25.8586 130.108 26.2327 130.108 26.9898V29.871H129.047V22.8984H130.108V25.7695H130.129C130.463 25.2487 130.948 24.9921 131.567 24.9921C132.578 24.9921 133.196 25.7786 133.196 27.0283V29.871ZM138.959 27.7365H135.77C135.791 28.6415 136.39 29.1524 137.277 29.1524C137.748 29.1524 138.182 29.0734 138.565 28.9265L138.73 29.6643C138.278 29.8608 137.746 29.9591 137.127 29.9591C135.632 29.9591 134.747 29.0143 134.747 27.5503C134.747 26.0848 135.653 24.983 137.007 24.983C138.229 24.983 138.995 25.888 138.995 27.255C139.002 27.4164 138.99 27.578 138.959 27.7365ZM137.984 26.9797C137.984 26.2418 137.612 25.7208 136.933 25.7208C136.323 25.7208 135.84 26.252 135.771 26.9797H137.984Z" fill="white"/>
</g>
<defs>
<filter id="filter0_d_719_2468" x="0.336325" y="0.461325" width="168.36" height="72.1145" filterUnits="userSpaceOnUse" color-interpolation-filters="sRGB">
<feFlood flood-opacity="0" result="BackgroundImageFix"/>
<feColorMatrix in="SourceAlpha" type="matrix" values="0 0 0 0 0 0 0 0 0 0 0 0 0 0 0 0 0 0 127 0" result="hardAlpha"/>
<feOffset/>
<feGaussianBlur stdDeviation="8.34844"/>
<feComposite in2="hardAlpha" operator="out"/>
<feColorMatrix type="matrix" values="0 0 0 0 0.462158 0 0 0 0 0.458487 0 0 0 0 0.458487 0 0 0 0.05 0"/>
<feBlend mode="normal" in2="BackgroundImageFix" result="effect1_dropShadow_719_2468"/>
<feBlend mode="normal" in="SourceGraphic" in2="effect1_dropShadow_719_2468" result="shape"/>
</filter>
</defs>
</svg>
