<svg width="124" height="125" viewBox="0 0 124 125" fill="none" xmlns="http://www.w3.org/2000/svg">
<g clip-path="url(#clip0_719_2141)">
<g filter="url(#filter0_d_719_2141)">
<path d="M114 0H10C4.47715 0 0 4.47715 0 10V115C0 120.523 4.47715 125 10 125H114C119.523 125 124 120.523 124 115V10C124 4.47715 119.523 0 114 0Z" fill="white"/>
</g>
<path d="M12.088 7.81445H7.74951V12.189H12.088V7.81445Z" fill="#373435"/>
<path d="M16.4264 7.81445H12.0879V12.189H16.4264V7.81445Z" fill="#373435"/>
<path d="M20.7691 7.81445H16.4307V12.189H20.7691V7.81445Z" fill="#373435"/>
<path d="M25.108 7.81445H20.7695V12.189H25.108V7.81445Z" fill="#373435"/>
<path d="M29.4464 7.81445H25.1079V12.189H29.4464V7.81445Z" fill="#373435"/>
<path d="M33.7892 7.81445H29.4507V12.189H33.7892V7.81445Z" fill="#373435"/>
<path d="M38.1275 7.81445H33.7891V12.189H38.1275V7.81445Z" fill="#373435"/>
<path d="M46.8087 7.81445H42.4702V12.189H46.8087V7.81445Z" fill="#373435"/>
<path d="M51.1476 7.81445H46.8091V12.189H51.1476V7.81445Z" fill="#373435"/>
<path d="M55.4903 7.81445H51.1519V12.189H55.4903V7.81445Z" fill="#373435"/>
<path d="M59.8287 7.81445H55.4902V12.189H59.8287V7.81445Z" fill="#373435"/>
<path d="M90.2067 7.81445H85.8682V12.189H90.2067V7.81445Z" fill="#373435"/>
<path d="M94.5494 7.81445H90.2109V12.189H94.5494V7.81445Z" fill="#373435"/>
<path d="M98.8878 7.81445H94.5493V12.189H98.8878V7.81445Z" fill="#373435"/>
<path d="M103.227 7.81445H98.8882V12.189H103.227V7.81445Z" fill="#373435"/>
<path d="M107.569 7.81445H103.231V12.189H107.569V7.81445Z" fill="#373435"/>
<path d="M111.908 7.81445H107.569V12.189H111.908V7.81445Z" fill="#373435"/>
<path d="M116.246 7.81445H111.908V12.189H116.246V7.81445Z" fill="#373435"/>
<path d="M12.088 12.1895H7.74951V16.564H12.088V12.1895Z" fill="#373435"/>
<path d="M38.1275 12.1895H33.7891V16.564H38.1275V12.1895Z" fill="#373435"/>
<path d="M59.8287 12.1895H55.4902V16.564H59.8287V12.1895Z" fill="#373435"/>
<path d="M64.1671 12.1895H59.8286V16.564H64.1671V12.1895Z" fill="#373435"/>
<path d="M68.5099 12.1895H64.1714V16.564H68.5099V12.1895Z" fill="#373435"/>
<path d="M72.8482 12.1895H68.5098V16.564H72.8482V12.1895Z" fill="#373435"/>
<path d="M81.5299 12.1895H77.1914V16.564H81.5299V12.1895Z" fill="#373435"/>
<path d="M90.2067 12.1895H85.8682V16.564H90.2067V12.1895Z" fill="#373435"/>
<path d="M116.246 12.1895H111.908V16.564H116.246V12.1895Z" fill="#373435"/>
<path d="M12.088 16.5625H7.74951V20.937H12.088V16.5625Z" fill="#373435"/>
<path d="M20.7691 16.5625H16.4307V20.937H20.7691V16.5625Z" fill="#373435"/>
<path d="M25.108 16.5625H20.7695V20.937H25.108V16.5625Z" fill="#373435"/>
<path d="M29.4464 16.5625H25.1079V20.937H29.4464V16.5625Z" fill="#373435"/>
<path d="M38.1275 16.5625H33.7891V20.937H38.1275V16.5625Z" fill="#373435"/>
<path d="M51.1476 16.5625H46.8091V20.937H51.1476V16.5625Z" fill="#373435"/>
<path d="M59.8287 16.5625H55.4902V20.937H59.8287V16.5625Z" fill="#373435"/>
<path d="M68.5099 16.5625H64.1714V20.937H68.5099V16.5625Z" fill="#373435"/>
<path d="M77.1871 16.5625H72.8486V20.937H77.1871V16.5625Z" fill="#373435"/>
<path d="M81.5299 16.5625H77.1914V20.937H81.5299V16.5625Z" fill="#373435"/>
<path d="M90.2067 16.5625H85.8682V20.937H90.2067V16.5625Z" fill="#373435"/>
<path d="M98.8878 16.5625H94.5493V20.937H98.8878V16.5625Z" fill="#373435"/>
<path d="M103.227 16.5625H98.8882V20.937H103.227V16.5625Z" fill="#373435"/>
<path d="M107.569 16.5625H103.231V20.937H107.569V16.5625Z" fill="#373435"/>
<path d="M116.246 16.5625H111.908V20.937H116.246V16.5625Z" fill="#373435"/>
<path d="M12.088 20.9375H7.74951V25.312H12.088V20.9375Z" fill="#373435"/>
<path d="M20.7691 20.9375H16.4307V25.312H20.7691V20.9375Z" fill="#373435"/>
<path d="M25.108 20.9375H20.7695V25.312H25.108V20.9375Z" fill="#373435"/>
<path d="M29.4464 20.9375H25.1079V25.312H29.4464V20.9375Z" fill="#373435"/>
<path d="M38.1275 20.9375H33.7891V25.312H38.1275V20.9375Z" fill="#373435"/>
<path d="M55.4903 20.9375H51.1519V25.312H55.4903V20.9375Z" fill="#373435"/>
<path d="M59.8287 20.9375H55.4902V25.312H59.8287V20.9375Z" fill="#373435"/>
<path d="M68.5099 20.9375H64.1714V25.312H68.5099V20.9375Z" fill="#373435"/>
<path d="M77.1871 20.9375H72.8486V25.312H77.1871V20.9375Z" fill="#373435"/>
<path d="M81.5299 20.9375H77.1914V25.312H81.5299V20.9375Z" fill="#373435"/>
<path d="M90.2067 20.9375H85.8682V25.312H90.2067V20.9375Z" fill="#373435"/>
<path d="M98.8878 20.9375H94.5493V25.312H98.8878V20.9375Z" fill="#373435"/>
<path d="M103.227 20.9375H98.8882V25.312H103.227V20.9375Z" fill="#373435"/>
<path d="M107.569 20.9375H103.231V25.312H107.569V20.9375Z" fill="#373435"/>
<path d="M116.246 20.9375H111.908V25.312H116.246V20.9375Z" fill="#373435"/>
<path d="M12.088 25.3125H7.74951V29.687H12.088V25.3125Z" fill="#373435"/>
<path d="M20.7691 25.3125H16.4307V29.687H20.7691V25.3125Z" fill="#373435"/>
<path d="M25.108 25.3125H20.7695V29.687H25.108V25.3125Z" fill="#373435"/>
<path d="M29.4464 25.3125H25.1079V29.687H29.4464V25.3125Z" fill="#373435"/>
<path d="M38.1275 25.3125H33.7891V29.687H38.1275V25.3125Z" fill="#373435"/>
<path d="M55.4903 25.3125H51.1519V29.687H55.4903V25.3125Z" fill="#373435"/>
<path d="M59.8287 25.3125H55.4902V29.687H59.8287V25.3125Z" fill="#373435"/>
<path d="M64.1671 25.3125H59.8286V29.687H64.1671V25.3125Z" fill="#373435"/>
<path d="M72.8482 25.3125H68.5098V29.687H72.8482V25.3125Z" fill="#373435"/>
<path d="M81.5299 25.3125H77.1914V29.687H81.5299V25.3125Z" fill="#373435"/>
<path d="M90.2067 25.3125H85.8682V29.687H90.2067V25.3125Z" fill="#373435"/>
<path d="M98.8878 25.3125H94.5493V29.687H98.8878V25.3125Z" fill="#373435"/>
<path d="M103.227 25.3125H98.8882V29.687H103.227V25.3125Z" fill="#373435"/>
<path d="M107.569 25.3125H103.231V29.687H107.569V25.3125Z" fill="#373435"/>
<path d="M116.246 25.3125H111.908V29.687H116.246V25.3125Z" fill="#373435"/>
<path d="M12.088 29.6875H7.74951V34.062H12.088V29.6875Z" fill="#373435"/>
<path d="M38.1275 29.6875H33.7891V34.062H38.1275V29.6875Z" fill="#373435"/>
<path d="M51.1476 29.6875H46.8091V34.062H51.1476V29.6875Z" fill="#373435"/>
<path d="M59.8287 29.6875H55.4902V34.062H59.8287V29.6875Z" fill="#373435"/>
<path d="M72.8482 29.6875H68.5098V34.062H72.8482V29.6875Z" fill="#373435"/>
<path d="M81.5299 29.6875H77.1914V34.062H81.5299V29.6875Z" fill="#373435"/>
<path d="M90.2067 29.6875H85.8682V34.062H90.2067V29.6875Z" fill="#373435"/>
<path d="M116.246 29.6875H111.908V34.062H116.246V29.6875Z" fill="#373435"/>
<path d="M12.088 34.0605H7.74951V38.435H12.088V34.0605Z" fill="#373435"/>
<path d="M16.4264 34.0605H12.0879V38.435H16.4264V34.0605Z" fill="#373435"/>
<path d="M20.7691 34.0605H16.4307V38.435H20.7691V34.0605Z" fill="#373435"/>
<path d="M25.108 34.0605H20.7695V38.435H25.108V34.0605Z" fill="#373435"/>
<path d="M29.4464 34.0605H25.1079V38.435H29.4464V34.0605Z" fill="#373435"/>
<path d="M33.7892 34.0605H29.4507V38.435H33.7892V34.0605Z" fill="#373435"/>
<path d="M38.1275 34.0605H33.7891V38.435H38.1275V34.0605Z" fill="#373435"/>
<path d="M46.8087 34.0605H42.4702V38.435H46.8087V34.0605Z" fill="#373435"/>
<path d="M55.4903 34.0605H51.1519V38.435H55.4903V34.0605Z" fill="#373435"/>
<path d="M64.1671 34.0605H59.8286V38.435H64.1671V34.0605Z" fill="#373435"/>
<path d="M72.8482 34.0605H68.5098V38.435H72.8482V34.0605Z" fill="#373435"/>
<path d="M81.5299 34.0605H77.1914V38.435H81.5299V34.0605Z" fill="#373435"/>
<path d="M90.2067 34.0605H85.8682V38.435H90.2067V34.0605Z" fill="#373435"/>
<path d="M94.5494 34.0605H90.2109V38.435H94.5494V34.0605Z" fill="#373435"/>
<path d="M98.8878 34.0605H94.5493V38.435H98.8878V34.0605Z" fill="#373435"/>
<path d="M103.227 34.0605H98.8882V38.435H103.227V34.0605Z" fill="#373435"/>
<path d="M107.569 34.0605H103.231V38.435H107.569V34.0605Z" fill="#373435"/>
<path d="M111.908 34.0605H107.569V38.435H111.908V34.0605Z" fill="#373435"/>
<path d="M116.246 34.0605H111.908V38.435H116.246V34.0605Z" fill="#373435"/>
<path d="M46.8087 38.4355H42.4702V42.81H46.8087V38.4355Z" fill="#373435"/>
<path d="M51.1476 38.4355H46.8091V42.81H51.1476V38.4355Z" fill="#373435"/>
<path d="M64.1671 38.4355H59.8286V42.81H64.1671V38.4355Z" fill="#373435"/>
<path d="M68.5099 38.4355H64.1714V42.81H68.5099V38.4355Z" fill="#373435"/>
<path d="M12.088 42.8145H7.74951V47.189H12.088V42.8145Z" fill="#373435"/>
<path d="M16.4264 42.8145H12.0879V47.189H16.4264V42.8145Z" fill="#373435"/>
<path d="M25.108 42.8145H20.7695V47.189H25.108V42.8145Z" fill="#373435"/>
<path d="M29.4464 42.8145H25.1079V47.189H29.4464V42.8145Z" fill="#373435"/>
<path d="M38.1275 42.8145H33.7891V47.189H38.1275V42.8145Z" fill="#373435"/>
<path d="M51.1476 42.8145H46.8091V47.189H51.1476V42.8145Z" fill="#373435"/>
<path d="M64.1671 42.8145H59.8286V47.189H64.1671V42.8145Z" fill="#373435"/>
<path d="M72.8482 42.8145H68.5098V47.189H72.8482V42.8145Z" fill="#373435"/>
<path d="M77.1871 42.8145H72.8486V47.189H77.1871V42.8145Z" fill="#373435"/>
<path d="M90.2067 42.8145H85.8682V47.189H90.2067V42.8145Z" fill="#373435"/>
<path d="M116.246 42.8145H111.908V47.189H116.246V42.8145Z" fill="#373435"/>
<path d="M12.088 47.1895H7.74951V51.564H12.088V47.1895Z" fill="#373435"/>
<path d="M16.4264 47.1895H12.0879V51.564H16.4264V47.1895Z" fill="#373435"/>
<path d="M20.7691 47.1895H16.4307V51.564H20.7691V47.1895Z" fill="#373435"/>
<path d="M29.4464 47.1895H25.1079V51.564H29.4464V47.1895Z" fill="#373435"/>
<path d="M33.7892 47.1895H29.4507V51.564H33.7892V47.1895Z" fill="#373435"/>
<path d="M42.4703 47.1895H38.1318V51.564H42.4703V47.1895Z" fill="#373435"/>
<path d="M55.4903 47.1895H51.1519V51.564H55.4903V47.1895Z" fill="#373435"/>
<path d="M68.5099 47.1895H64.1714V51.564H68.5099V47.1895Z" fill="#373435"/>
<path d="M72.8482 47.1895H68.5098V51.564H72.8482V47.1895Z" fill="#373435"/>
<path d="M77.1871 47.1895H72.8486V51.564H77.1871V47.1895Z" fill="#373435"/>
<path d="M85.8683 47.1895H81.5298V51.564H85.8683V47.1895Z" fill="#373435"/>
<path d="M94.5494 47.1895H90.2109V51.564H94.5494V47.1895Z" fill="#373435"/>
<path d="M98.8878 47.1895H94.5493V51.564H98.8878V47.1895Z" fill="#373435"/>
<path d="M103.227 47.1895H98.8882V51.564H103.227V47.1895Z" fill="#373435"/>
<path d="M107.569 47.1895H103.231V51.564H107.569V47.1895Z" fill="#373435"/>
<path d="M111.908 47.1895H107.569V51.564H111.908V47.1895Z" fill="#373435"/>
<path d="M12.088 51.5645H7.74951V55.939H12.088V51.5645Z" fill="#373435"/>
<path d="M20.7691 51.5645H16.4307V55.939H20.7691V51.5645Z" fill="#373435"/>
<path d="M29.4464 51.5645H25.1079V55.939H29.4464V51.5645Z" fill="#373435"/>
<path d="M38.1275 51.5645H33.7891V55.939H38.1275V51.5645Z" fill="#373435"/>
<path d="M42.4703 51.5645H38.1318V55.939H42.4703V51.5645Z" fill="#373435"/>
<path d="M46.8087 51.5645H42.4702V55.939H46.8087V51.5645Z" fill="#373435"/>
<path d="M51.1476 51.5645H46.8091V55.939H51.1476V51.5645Z" fill="#373435"/>
<path d="M64.1671 51.5645H59.8286V55.939H64.1671V51.5645Z" fill="#373435"/>
<path d="M77.1871 51.5645H72.8486V55.939H77.1871V51.5645Z" fill="#373435"/>
<path d="M81.5299 51.5645H77.1914V55.939H81.5299V51.5645Z" fill="#373435"/>
<path d="M90.2067 51.5645H85.8682V55.939H90.2067V51.5645Z" fill="#373435"/>
<path d="M94.5494 51.5645H90.2109V55.939H94.5494V51.5645Z" fill="#373435"/>
<path d="M103.227 51.5645H98.8882V55.939H103.227V51.5645Z" fill="#373435"/>
<path d="M116.246 51.5645H111.908V55.939H116.246V51.5645Z" fill="#373435"/>
<path d="M12.088 55.9375H7.74951V60.312H12.088V55.9375Z" fill="#373435"/>
<path d="M16.4264 55.9375H12.0879V60.312H16.4264V55.9375Z" fill="#373435"/>
<path d="M42.4703 55.9375H38.1318V60.312H42.4703V55.9375Z" fill="#373435"/>
<path d="M46.8087 55.9375H42.4702V60.312H46.8087V55.9375Z" fill="#373435"/>
<path d="M77.1871 55.9375H72.8486V60.312H77.1871V55.9375Z" fill="#373435"/>
<path d="M94.5494 55.9375H90.2109V60.312H94.5494V55.9375Z" fill="#373435"/>
<path d="M103.227 55.9375H98.8882V60.312H103.227V55.9375Z" fill="#373435"/>
<path d="M107.569 55.9375H103.231V60.312H107.569V55.9375Z" fill="#373435"/>
<path d="M111.908 55.9375H107.569V60.312H111.908V55.9375Z" fill="#373435"/>
<path d="M116.246 55.9375H111.908V60.312H116.246V55.9375Z" fill="#373435"/>
<path d="M20.7691 60.3125H16.4307V64.687H20.7691V60.3125Z" fill="#373435"/>
<path d="M25.108 60.3125H20.7695V64.687H25.108V60.3125Z" fill="#373435"/>
<path d="M38.1275 60.3125H33.7891V64.687H38.1275V60.3125Z" fill="#373435"/>
<path d="M46.8087 60.3125H42.4702V64.687H46.8087V60.3125Z" fill="#373435"/>
<path d="M51.1476 60.3125H46.8091V64.687H51.1476V60.3125Z" fill="#373435"/>
<path d="M55.4903 60.3125H51.1519V64.687H55.4903V60.3125Z" fill="#373435"/>
<path d="M72.8482 60.3125H68.5098V64.687H72.8482V60.3125Z" fill="#373435"/>
<path d="M77.1871 60.3125H72.8486V64.687H77.1871V60.3125Z" fill="#373435"/>
<path d="M90.2067 60.3125H85.8682V64.687H90.2067V60.3125Z" fill="#373435"/>
<path d="M116.246 60.3125H111.908V64.687H116.246V60.3125Z" fill="#373435"/>
<path d="M12.088 64.6875H7.74951V69.062H12.088V64.6875Z" fill="#373435"/>
<path d="M20.7691 64.6875H16.4307V69.062H20.7691V64.6875Z" fill="#373435"/>
<path d="M25.108 64.6875H20.7695V69.062H25.108V64.6875Z" fill="#373435"/>
<path d="M33.7892 64.6875H29.4507V69.062H33.7892V64.6875Z" fill="#373435"/>
<path d="M42.4703 64.6875H38.1318V69.062H42.4703V64.6875Z" fill="#373435"/>
<path d="M55.4903 64.6875H51.1519V69.062H55.4903V64.6875Z" fill="#373435"/>
<path d="M64.1671 64.6875H59.8286V69.062H64.1671V64.6875Z" fill="#373435"/>
<path d="M72.8482 64.6875H68.5098V69.062H72.8482V64.6875Z" fill="#373435"/>
<path d="M77.1871 64.6875H72.8486V69.062H77.1871V64.6875Z" fill="#373435"/>
<path d="M81.5299 64.6875H77.1914V69.062H81.5299V64.6875Z" fill="#373435"/>
<path d="M85.8683 64.6875H81.5298V69.062H85.8683V64.6875Z" fill="#373435"/>
<path d="M98.8878 64.6875H94.5493V69.062H98.8878V64.6875Z" fill="#373435"/>
<path d="M111.908 64.6875H107.569V69.062H111.908V64.6875Z" fill="#373435"/>
<path d="M12.088 69.0625H7.74951V73.437H12.088V69.0625Z" fill="#373435"/>
<path d="M16.4264 69.0625H12.0879V73.437H16.4264V69.0625Z" fill="#373435"/>
<path d="M25.108 69.0625H20.7695V73.437H25.108V69.0625Z" fill="#373435"/>
<path d="M29.4464 69.0625H25.1079V73.437H29.4464V69.0625Z" fill="#373435"/>
<path d="M33.7892 69.0625H29.4507V73.437H33.7892V69.0625Z" fill="#373435"/>
<path d="M38.1275 69.0625H33.7891V73.437H38.1275V69.0625Z" fill="#373435"/>
<path d="M42.4703 69.0625H38.1318V73.437H42.4703V69.0625Z" fill="#373435"/>
<path d="M51.1476 69.0625H46.8091V73.437H51.1476V69.0625Z" fill="#373435"/>
<path d="M72.8482 69.0625H68.5098V73.437H72.8482V69.0625Z" fill="#373435"/>
<path d="M77.1871 69.0625H72.8486V73.437H77.1871V69.0625Z" fill="#373435"/>
<path d="M85.8683 69.0625H81.5298V73.437H85.8683V69.0625Z" fill="#373435"/>
<path d="M90.2067 69.0625H85.8682V73.437H90.2067V69.0625Z" fill="#373435"/>
<path d="M98.8878 69.0625H94.5493V73.437H98.8878V69.0625Z" fill="#373435"/>
<path d="M103.227 69.0625H98.8882V73.437H103.227V69.0625Z" fill="#373435"/>
<path d="M107.569 69.0625H103.231V73.437H107.569V69.0625Z" fill="#373435"/>
<path d="M111.908 69.0625H107.569V73.437H111.908V69.0625Z" fill="#373435"/>
<path d="M116.246 69.0625H111.908V73.437H116.246V69.0625Z" fill="#373435"/>
<path d="M12.088 73.4355H7.74951V77.81H12.088V73.4355Z" fill="#373435"/>
<path d="M33.7892 73.4355H29.4507V77.81H33.7892V73.4355Z" fill="#373435"/>
<path d="M42.4703 73.4355H38.1318V77.81H42.4703V73.4355Z" fill="#373435"/>
<path d="M51.1476 73.4355H46.8091V77.81H51.1476V73.4355Z" fill="#373435"/>
<path d="M64.1671 73.4355H59.8286V77.81H64.1671V73.4355Z" fill="#373435"/>
<path d="M72.8482 73.4355H68.5098V77.81H72.8482V73.4355Z" fill="#373435"/>
<path d="M81.5299 73.4355H77.1914V77.81H81.5299V73.4355Z" fill="#373435"/>
<path d="M85.8683 73.4355H81.5298V77.81H85.8683V73.4355Z" fill="#373435"/>
<path d="M94.5494 73.4355H90.2109V77.81H94.5494V73.4355Z" fill="#373435"/>
<path d="M103.227 73.4355H98.8882V77.81H103.227V73.4355Z" fill="#373435"/>
<path d="M107.569 73.4355H103.231V77.81H107.569V73.4355Z" fill="#373435"/>
<path d="M116.246 73.4355H111.908V77.81H116.246V73.4355Z" fill="#373435"/>
<path d="M12.088 77.8105H7.74951V82.185H12.088V77.8105Z" fill="#373435"/>
<path d="M20.7691 77.8105H16.4307V82.185H20.7691V77.8105Z" fill="#373435"/>
<path d="M25.108 77.8105H20.7695V82.185H25.108V77.8105Z" fill="#373435"/>
<path d="M29.4464 77.8105H25.1079V82.185H29.4464V77.8105Z" fill="#373435"/>
<path d="M38.1275 77.8105H33.7891V82.185H38.1275V77.8105Z" fill="#373435"/>
<path d="M42.4703 77.8105H38.1318V82.185H42.4703V77.8105Z" fill="#373435"/>
<path d="M55.4903 77.8105H51.1519V82.185H55.4903V77.8105Z" fill="#373435"/>
<path d="M59.8287 77.8105H55.4902V82.185H59.8287V77.8105Z" fill="#373435"/>
<path d="M64.1671 77.8105H59.8286V82.185H64.1671V77.8105Z" fill="#373435"/>
<path d="M68.5099 77.8105H64.1714V82.185H68.5099V77.8105Z" fill="#373435"/>
<path d="M77.1871 77.8105H72.8486V82.185H77.1871V77.8105Z" fill="#373435"/>
<path d="M81.5299 77.8105H77.1914V82.185H81.5299V77.8105Z" fill="#373435"/>
<path d="M85.8683 77.8105H81.5298V82.185H85.8683V77.8105Z" fill="#373435"/>
<path d="M90.2067 77.8105H85.8682V82.185H90.2067V77.8105Z" fill="#373435"/>
<path d="M94.5494 77.8105H90.2109V82.185H94.5494V77.8105Z" fill="#373435"/>
<path d="M98.8878 77.8105H94.5493V82.185H98.8878V77.8105Z" fill="#373435"/>
<path d="M107.569 77.8105H103.231V82.185H107.569V77.8105Z" fill="#373435"/>
<path d="M111.908 77.8105H107.569V82.185H111.908V77.8105Z" fill="#373435"/>
<path d="M46.8087 82.1895H42.4702V86.564H46.8087V82.1895Z" fill="#373435"/>
<path d="M51.1476 82.1895H46.8091V86.564H51.1476V82.1895Z" fill="#373435"/>
<path d="M59.8287 82.1895H55.4902V86.564H59.8287V82.1895Z" fill="#373435"/>
<path d="M81.5299 82.1895H77.1914V86.564H81.5299V82.1895Z" fill="#373435"/>
<path d="M98.8878 82.1895H94.5493V86.564H98.8878V82.1895Z" fill="#373435"/>
<path d="M107.569 82.1895H103.231V86.564H107.569V82.1895Z" fill="#373435"/>
<path d="M111.908 82.1895H107.569V86.564H111.908V82.1895Z" fill="#373435"/>
<path d="M12.088 86.5645H7.74951V90.939H12.088V86.5645Z" fill="#373435"/>
<path d="M16.4264 86.5645H12.0879V90.939H16.4264V86.5645Z" fill="#373435"/>
<path d="M20.7691 86.5645H16.4307V90.939H20.7691V86.5645Z" fill="#373435"/>
<path d="M25.108 86.5645H20.7695V90.939H25.108V86.5645Z" fill="#373435"/>
<path d="M29.4464 86.5645H25.1079V90.939H29.4464V86.5645Z" fill="#373435"/>
<path d="M33.7892 86.5645H29.4507V90.939H33.7892V86.5645Z" fill="#373435"/>
<path d="M38.1275 86.5645H33.7891V90.939H38.1275V86.5645Z" fill="#373435"/>
<path d="M55.4903 86.5645H51.1519V90.939H55.4903V86.5645Z" fill="#373435"/>
<path d="M64.1671 86.5645H59.8286V90.939H64.1671V86.5645Z" fill="#373435"/>
<path d="M72.8482 86.5645H68.5098V90.939H72.8482V86.5645Z" fill="#373435"/>
<path d="M81.5299 86.5645H77.1914V90.939H81.5299V86.5645Z" fill="#373435"/>
<path d="M90.2067 86.5645H85.8682V90.939H90.2067V86.5645Z" fill="#373435"/>
<path d="M98.8878 86.5645H94.5493V90.939H98.8878V86.5645Z" fill="#373435"/>
<path d="M116.246 86.5645H111.908V90.939H116.246V86.5645Z" fill="#373435"/>
<path d="M12.088 90.9395H7.74951V95.314H12.088V90.9395Z" fill="#373435"/>
<path d="M38.1275 90.9395H33.7891V95.314H38.1275V90.9395Z" fill="#373435"/>
<path d="M59.8287 90.9395H55.4902V95.314H59.8287V90.9395Z" fill="#373435"/>
<path d="M68.5099 90.9395H64.1714V95.314H68.5099V90.9395Z" fill="#373435"/>
<path d="M77.1871 90.9395H72.8486V95.314H77.1871V90.9395Z" fill="#373435"/>
<path d="M81.5299 90.9395H77.1914V95.314H81.5299V90.9395Z" fill="#373435"/>
<path d="M98.8878 90.9395H94.5493V95.314H98.8878V90.9395Z" fill="#373435"/>
<path d="M116.246 90.9395H111.908V95.314H116.246V90.9395Z" fill="#373435"/>
<path d="M12.088 95.3125H7.74951V99.687H12.088V95.3125Z" fill="#373435"/>
<path d="M20.7691 95.3125H16.4307V99.687H20.7691V95.3125Z" fill="#373435"/>
<path d="M25.108 95.3125H20.7695V99.687H25.108V95.3125Z" fill="#373435"/>
<path d="M29.4464 95.3125H25.1079V99.687H29.4464V95.3125Z" fill="#373435"/>
<path d="M38.1275 95.3125H33.7891V99.687H38.1275V95.3125Z" fill="#373435"/>
<path d="M46.8087 95.3125H42.4702V99.687H46.8087V95.3125Z" fill="#373435"/>
<path d="M55.4903 95.3125H51.1519V99.687H55.4903V95.3125Z" fill="#373435"/>
<path d="M59.8287 95.3125H55.4902V99.687H59.8287V95.3125Z" fill="#373435"/>
<path d="M64.1671 95.3125H59.8286V99.687H64.1671V95.3125Z" fill="#373435"/>
<path d="M72.8482 95.3125H68.5098V99.687H72.8482V95.3125Z" fill="#373435"/>
<path d="M77.1871 95.3125H72.8486V99.687H77.1871V95.3125Z" fill="#373435"/>
<path d="M81.5299 95.3125H77.1914V99.687H81.5299V95.3125Z" fill="#373435"/>
<path d="M85.8683 95.3125H81.5298V99.687H85.8683V95.3125Z" fill="#373435"/>
<path d="M90.2067 95.3125H85.8682V99.687H90.2067V95.3125Z" fill="#373435"/>
<path d="M94.5494 95.3125H90.2109V99.687H94.5494V95.3125Z" fill="#373435"/>
<path d="M98.8878 95.3125H94.5493V99.687H98.8878V95.3125Z" fill="#373435"/>
<path d="M12.088 99.6875H7.74951V104.062H12.088V99.6875Z" fill="#373435"/>
<path d="M20.7691 99.6875H16.4307V104.062H20.7691V99.6875Z" fill="#373435"/>
<path d="M25.108 99.6875H20.7695V104.062H25.108V99.6875Z" fill="#373435"/>
<path d="M29.4464 99.6875H25.1079V104.062H29.4464V99.6875Z" fill="#373435"/>
<path d="M38.1275 99.6875H33.7891V104.062H38.1275V99.6875Z" fill="#373435"/>
<path d="M46.8087 99.6875H42.4702V104.062H46.8087V99.6875Z" fill="#373435"/>
<path d="M51.1476 99.6875H46.8091V104.062H51.1476V99.6875Z" fill="#373435"/>
<path d="M64.1671 99.6875H59.8286V104.062H64.1671V99.6875Z" fill="#373435"/>
<path d="M68.5099 99.6875H64.1714V104.062H68.5099V99.6875Z" fill="#373435"/>
<path d="M72.8482 99.6875H68.5098V104.062H72.8482V99.6875Z" fill="#373435"/>
<path d="M90.2067 99.6875H85.8682V104.062H90.2067V99.6875Z" fill="#373435"/>
<path d="M111.908 99.6875H107.569V104.062H111.908V99.6875Z" fill="#373435"/>
<path d="M116.246 99.6875H111.908V104.062H116.246V99.6875Z" fill="#373435"/>
<path d="M12.088 104.062H7.74951V108.437H12.088V104.062Z" fill="#373435"/>
<path d="M20.7691 104.062H16.4307V108.437H20.7691V104.062Z" fill="#373435"/>
<path d="M25.108 104.062H20.7695V108.437H25.108V104.062Z" fill="#373435"/>
<path d="M29.4464 104.062H25.1079V108.437H29.4464V104.062Z" fill="#373435"/>
<path d="M38.1275 104.062H33.7891V108.437H38.1275V104.062Z" fill="#373435"/>
<path d="M51.1476 104.062H46.8091V108.437H51.1476V104.062Z" fill="#373435"/>
<path d="M59.8287 104.062H55.4902V108.437H59.8287V104.062Z" fill="#373435"/>
<path d="M68.5099 104.062H64.1714V108.437H68.5099V104.062Z" fill="#373435"/>
<path d="M77.1871 104.062H72.8486V108.437H77.1871V104.062Z" fill="#373435"/>
<path d="M85.8683 104.062H81.5298V108.437H85.8683V104.062Z" fill="#373435"/>
<path d="M98.8878 104.062H94.5493V108.437H98.8878V104.062Z" fill="#373435"/>
<path d="M103.227 104.062H98.8882V108.437H103.227V104.062Z" fill="#373435"/>
<path d="M107.569 104.062H103.231V108.437H107.569V104.062Z" fill="#373435"/>
<path d="M111.908 104.062H107.569V108.437H111.908V104.062Z" fill="#373435"/>
<path d="M116.246 104.062H111.908V108.437H116.246V104.062Z" fill="#373435"/>
<path d="M12.088 108.438H7.74951V112.812H12.088V108.438Z" fill="#373435"/>
<path d="M38.1275 108.438H33.7891V112.812H38.1275V108.438Z" fill="#373435"/>
<path d="M46.8087 108.438H42.4702V112.812H46.8087V108.438Z" fill="#373435"/>
<path d="M55.4903 108.438H51.1519V112.812H55.4903V108.438Z" fill="#373435"/>
<path d="M59.8287 108.438H55.4902V112.812H59.8287V108.438Z" fill="#373435"/>
<path d="M72.8482 108.438H68.5098V112.812H72.8482V108.438Z" fill="#373435"/>
<path d="M77.1871 108.438H72.8486V112.812H77.1871V108.438Z" fill="#373435"/>
<path d="M94.5494 108.438H90.2109V112.812H94.5494V108.438Z" fill="#373435"/>
<path d="M98.8878 108.438H94.5493V112.812H98.8878V108.438Z" fill="#373435"/>
<path d="M107.569 108.438H103.231V112.812H107.569V108.438Z" fill="#373435"/>
<path d="M111.908 108.438H107.569V112.812H111.908V108.438Z" fill="#373435"/>
<path d="M116.246 108.438H111.908V112.812H116.246V108.438Z" fill="#373435"/>
<path d="M12.088 112.811H7.74951V117.185H12.088V112.811Z" fill="#373435"/>
<path d="M16.4264 112.811H12.0879V117.185H16.4264V112.811Z" fill="#373435"/>
<path d="M20.7691 112.811H16.4307V117.185H20.7691V112.811Z" fill="#373435"/>
<path d="M25.108 112.811H20.7695V117.185H25.108V112.811Z" fill="#373435"/>
<path d="M29.4464 112.811H25.1079V117.185H29.4464V112.811Z" fill="#373435"/>
<path d="M33.7892 112.811H29.4507V117.185H33.7892V112.811Z" fill="#373435"/>
<path d="M38.1275 112.811H33.7891V117.185H38.1275V112.811Z" fill="#373435"/>
<path d="M46.8087 112.811H42.4702V117.185H46.8087V112.811Z" fill="#373435"/>
<path d="M51.1476 112.811H46.8091V117.185H51.1476V112.811Z" fill="#373435"/>
<path d="M55.4903 112.811H51.1519V117.185H55.4903V112.811Z" fill="#373435"/>
<path d="M64.1671 112.811H59.8286V117.185H64.1671V112.811Z" fill="#373435"/>
<path d="M81.5299 112.811H77.1914V117.185H81.5299V112.811Z" fill="#373435"/>
<path d="M85.8683 112.811H81.5298V117.185H85.8683V112.811Z" fill="#373435"/>
<path d="M103.227 112.811H98.8882V117.185H103.227V112.811Z" fill="#373435"/>
<path d="M116.246 112.811H111.908V117.185H116.246V112.811Z" fill="#373435"/>
</g>
<defs>
<filter id="filter0_d_719_2141" x="-7" y="-5" width="138" height="139" filterUnits="userSpaceOnUse" color-interpolation-filters="sRGB">
<feFlood flood-opacity="0" result="BackgroundImageFix"/>
<feColorMatrix in="SourceAlpha" type="matrix" values="0 0 0 0 0 0 0 0 0 0 0 0 0 0 0 0 0 0 127 0" result="hardAlpha"/>
<feOffset dy="2"/>
<feGaussianBlur stdDeviation="3.5"/>
<feComposite in2="hardAlpha" operator="out"/>
<feColorMatrix type="matrix" values="0 0 0 0 0.130078 0 0 0 0 0.129909 0 0 0 0 0.129909 0 0 0 0.1 0"/>
<feBlend mode="normal" in2="BackgroundImageFix" result="effect1_dropShadow_719_2141"/>
<feBlend mode="normal" in="SourceGraphic" in2="effect1_dropShadow_719_2141" result="shape"/>
</filter>
<clipPath id="clip0_719_2141">
<rect width="124" height="125" fill="white"/>
</clipPath>
</defs>
</svg>
