<?xml version="1.0" encoding="utf-8"?>
<!-- Generator: Adobe Illustrator 26.4.1, SVG Export Plug-In . SVG Version: 6.00 Build 0)  -->
<svg version="1.1" id="Layer_1" xmlns="http://www.w3.org/2000/svg" xmlns:xlink="http://www.w3.org/1999/xlink" x="0px" y="0px"
	 viewBox="0 0 1000 162.32" style="enable-background:new 0 0 1000 162.32;" xml:space="preserve">
<style type="text/css">
	.st0{fill:#000C00;}
	.st1{fill:#1FE81F;}
</style>
<g>
	<g>
		<path class="st0" d="M364.62,29.9v39.52c0,20.2,9.41,29.61,29.61,29.61h65.86v-20.9h-67.55c-0.77,0-1.4-0.63-1.4-1.4V60.34h59.41
			V39.7h-59.41V24.71c0-2.08,1.7-3.78,3.78-3.78h65.17V0.29h-65.86C374.03,0.29,364.62,9.7,364.62,29.9z"/>
		<path class="st0" d="M501.59,0.28h-15.98c-5.83,0-10.55,4.72-10.55,10.55v88.2h95.48v-20.9h-68.95V0.28z"/>
		<path class="st0" d="M650.17,68.54l-33.6-65.39c-0.9-1.76-2.71-2.86-4.69-2.86h-15.76c-5.83,0-10.55,4.72-10.55,10.55v88.2h28.56
			V46.94l26.77,52.09h18.55l26.79-52.14v52.14h28.53v-88.2c0-5.83-4.72-10.55-10.55-10.55h-15.76c-1.98,0-3.79,1.11-4.69,2.86
			L650.17,68.54z"/>
		<path class="st0" d="M783.82,5.59L730.3,99.03h28.82l11.43-19.96h54.18l11.43,19.96h28.82L811.47,5.59
			c-1.88-3.28-5.37-5.31-9.15-5.31h-9.34C789.19,0.28,785.7,2.31,783.82,5.59z M797.64,31.77l15.27,26.66h-30.54L797.64,31.77z"/>
		<path class="st0" d="M907.92,20.93H1000V0.29h-90.39c-20.2,0-29.62,9.41-29.62,29.61v39.52c0,20.2,9.41,29.61,29.62,29.61h42.28
			c11.13,0,18.91-2.88,23.72-8.79l2.93,8.79h21.46V39.7h-60.9v20.65h34.37v16.64c0,0.84-0.75,1.14-1.4,1.14h-64.15
			c-0.77,0-1.4-0.63-1.4-1.4V22.33C906.52,21.56,907.15,20.93,907.92,20.93z"/>
	</g>
	<path class="st0" d="M364.27,140.59v12.79c0,6.18,2.29,8.93,7.43,8.93h17.19v-5.45h-17.64c-0.5,0-0.92-0.51-0.92-1.11v-5.97h15.99
		v-5.37h-15.99v-5.51c0-1.04,0.7-1.88,1.56-1.88h17v-5.36H371.7C366.56,131.67,364.27,134.42,364.27,140.59z"/>
	<polygon class="st0" points="401.27,131.67 395.22,131.67 395.22,162.32 419.83,162.32 419.83,156.87 401.27,156.87 	"/>
	<path class="st0" d="M425.16,140.59v12.79c0,6.18,2.29,8.93,7.43,8.93h17.19v-5.45h-17.64c-0.5,0-0.92-0.51-0.92-1.11v-5.97h15.99
		v-5.37h-15.99v-5.51c0-1.04,0.7-1.88,1.56-1.88h17v-5.36h-17.19C427.45,131.67,425.16,134.42,425.16,140.59z"/>
	<polygon class="st0" points="486.21,137.03 498.44,137.03 498.44,162.32 504.34,162.32 504.34,137.03 516.57,137.03 516.57,131.67 
		486.21,131.67 	"/>
	<path class="st0" d="M553.1,140.69c0-6.16-2.39-9.03-7.51-9.03h-23.71v30.65h6.06v-12.6h12.76l5.4,12.6h6.83l-5.46-12.75l0.37-0.08
		C551.42,148.73,553.1,145.93,553.1,140.69z M547.04,138.14v5.01c0,0.6-0.42,1.11-0.92,1.11h-18.19v-7.24h18.19
		C546.62,137.03,547.04,137.54,547.04,138.14z"/>
	<path class="st0" d="M582.45,131.67H566.1c-5.14,0-7.43,2.75-7.43,8.93v12.79c0,6.34,2.15,8.93,7.43,8.93h16.36
		c5.14,0,7.43-2.75,7.43-8.93v-12.79C589.89,134.42,587.6,131.67,582.45,131.67z M583.83,138.14v17.61c0,0.6-0.42,1.11-0.92,1.11
		h-17.28c-0.5,0-0.92-0.51-0.92-1.11v-17.61c0-0.6,0.42-1.11,0.92-1.11h17.28C583.41,137.03,583.83,137.54,583.83,138.14z"/>
	<polygon class="st0" points="595.38,137.03 607.96,137.03 607.96,162.32 614.01,162.32 614.01,137.03 626.6,137.03 626.6,131.67 
		595.38,131.67 	"/>
	<path class="st0" d="M631.9,140.59v12.79c0,6.18,2.29,8.93,7.43,8.93h17.19v-5.45h-17.64c-0.5,0-0.92-0.51-0.92-1.11v-5.97h15.99
		v-5.37h-15.99v-5.51c0-1.04,0.7-1.88,1.56-1.88h17v-5.36h-17.19C634.19,131.67,631.9,134.42,631.9,140.59z"/>
	<polygon class="st0" points="723.49,156.02 707.14,131.67 700.01,131.67 700.01,162.32 705.72,162.32 705.72,137.97 722.06,162.32 
		729.19,162.32 729.19,131.67 723.49,131.67 	"/>
	<rect x="735.65" y="131.67" class="st0" width="6.05" height="30.65"/>
	<path class="st0" d="M800.11,131.88l-0.1-0.22h-4.75l-13.35,30.18l-0.21,0.47h5.98l2.86-6.46h14.19l2.86,6.46h5.98L800.11,131.88z
		 M802.35,150.49h-9.44l4.72-10.67L802.35,150.49z"/>
	<polygon class="st0" points="475.64,131.67 459.64,146.15 459.64,131.67 453.31,131.67 453.31,162.32 459.64,162.32 459.64,152.77 
		463.82,148.94 475.99,162.32 483.58,162.32 468,145.49 483.58,131.67 	"/>
	<polygon class="st0" points="778.16,131.67 770.23,131.67 754.22,146.15 754.22,131.67 747.9,131.67 747.9,162.32 754.22,162.32 
		754.22,152.77 758.41,148.94 770.46,162.19 770.58,162.32 778.17,162.32 762.59,145.49 	"/>
	<polygon class="st0" points="693.22,131.67 686.14,131.67 677.72,143.31 669.3,131.67 662.22,131.67 673.69,146.99 662.14,162.31 
		669.27,162.31 677.72,150.83 686.17,162.31 693.29,162.31 681.94,146.99 	"/>
	<g>
		<path class="st1" d="M185.77,99.15L60.01,99.18L180.76,0h-75.58c-20.3,0-39.63,9.97-53.13,27.4L10.91,80.5
			c-24.54,31.67-5,81.82,31.88,81.82h94.04L185.77,99.15z"/>
		<path class="st1" d="M274.82,0h-94.07l-48.91,63.14L257.6,63.1l-120.77,99.22h75.6c20.3,0,39.63-9.97,53.13-27.4l41.14-53.1
			C331.24,50.15,311.7,0,274.82,0z"/>
	</g>
</g>
</svg>
