<svg width="16" height="9" viewBox="0 0 16 9" fill="none" xmlns="http://www.w3.org/2000/svg">
<path d="M15.9086 4.21837C14.9774 2.91429 13.8244 1.88571 12.4902 1.15714C11.2278 0.468367 9.81232 0.0765306 8.39059 0.0153061C8.26247 0.00612245 8.13124 0 8 0C7.86876 0 7.73753 0.00612245 7.60941 0.0153061C6.1908 0.0734694 4.77219 0.468367 3.50981 1.15714C2.17557 1.88571 1.02568 2.91429 0.0913973 4.21837C-0.0304658 4.38673 -0.0304658 4.61327 0.0913973 4.78163C1.02256 6.08571 2.17557 7.11429 3.50981 7.84286C4.77219 8.52857 6.18768 8.92347 7.60629 8.98469C7.7344 8.99694 7.86564 9 8 9C8.13124 9 8.26247 8.99388 8.39371 8.98469C9.81232 8.92347 11.2309 8.53163 12.4902 7.84286C13.8276 7.11429 14.9774 6.08571 15.9086 4.78163C16.0305 4.61327 16.0305 4.38673 15.9086 4.21837ZM8 8.02041C6.01894 8.02041 4.4066 6.44082 4.4066 4.5C4.4066 2.55918 6.01894 0.979592 8 0.979592C9.98106 0.979592 11.5934 2.55918 11.5934 4.5C11.5934 6.44082 9.98106 8.02041 8 8.02041ZM1.11942 4.5C1.99121 3.36735 3.07236 2.47653 4.27224 1.87653C3.72854 2.61429 3.4067 3.52041 3.4067 4.5C3.4067 5.47959 3.72854 6.38571 4.27224 7.12347C3.07236 6.52347 1.99121 5.63265 1.11942 4.5ZM11.7278 7.12347C12.2715 6.38571 12.5933 5.47959 12.5933 4.5C12.5933 3.52041 12.2715 2.61429 11.7278 1.87653C12.9276 2.47653 14.0088 3.36735 14.8806 4.5C14.0088 5.63265 12.9276 6.52347 11.7278 7.12347ZM8 2.26531C6.74075 2.26531 5.71897 3.26939 5.71897 4.5C5.71897 5.73061 6.74387 6.73469 8 6.73469C9.25925 6.73469 10.281 5.73061 10.281 4.5C10.281 3.26939 9.25613 2.26531 8 2.26531ZM8 5.7551C7.29382 5.7551 6.71887 5.19184 6.71887 4.5C6.71887 3.80816 7.29382 3.2449 8 3.2449C8.70618 3.2449 9.28113 3.80816 9.28113 4.5C9.28113 5.19184 8.70618 5.7551 8 5.7551Z" fill="white"/>
</svg>
