<svg width="169" height="73" viewBox="0 0 169 73" fill="none" xmlns="http://www.w3.org/2000/svg">
<g clip-path="url(#clip0_719_2473)" filter="url(#filter0_d_719_2473)">
<path d="M146.965 56.1188H22.0006C19.2513 56.1188 17.002 53.9274 17.002 51.249V22.03C17.002 19.3516 19.2513 17.1602 22.0006 17.1602H146.965C149.714 17.1602 151.963 19.3516 151.963 22.03V51.249C151.963 53.9274 149.714 56.1188 146.965 56.1188Z" fill="#373435"/>
<path d="M123.909 46.3776H125.774V34.201H123.909V46.3776ZM140.711 38.5876L138.573 43.8664H138.509L136.29 38.5876H134.28L137.609 45.9656L135.711 50.0698H137.656L142.786 38.5879L140.711 38.5876ZM130.131 44.9944C129.522 44.9944 128.669 44.6965 128.669 43.9604C128.669 43.0206 129.731 42.6603 130.646 42.6603C131.466 42.6603 131.853 42.8323 132.351 43.0674C132.206 44.1954 131.209 44.9944 130.131 44.9944ZM130.357 38.3212C129.007 38.3212 127.608 38.901 127.029 40.1855L128.685 40.8589C129.039 40.1855 129.698 39.9664 130.389 39.9664C131.354 39.9664 132.335 40.5298 132.351 41.5327V41.6579C132.013 41.4699 131.289 41.188 130.405 41.188C128.62 41.188 126.803 42.1433 126.803 43.9292C126.803 45.5583 128.267 46.6079 129.907 46.6079C131.16 46.6079 131.853 46.0597 132.286 45.4172H132.351V46.3576H134.152V41.689C134.152 39.5273 132.495 38.3212 130.357 38.3212ZM118.828 40.0698H116.175V35.8963H118.828C120.223 35.8963 121.015 37.021 121.015 37.983C121.015 38.9266 120.223 40.0698 118.828 40.0698ZM118.78 34.2013H114.31V46.3778H116.175V41.7649H118.78C120.848 41.7649 122.88 40.3069 122.88 37.9835C122.88 35.6604 120.848 34.2013 118.78 34.2013ZM94.4061 44.9965C93.1173 44.9965 92.0387 43.9449 92.0387 42.5018C92.0387 41.042 93.1173 39.9756 94.4061 39.9756C95.6784 39.9756 96.677 41.0421 96.677 42.5018C96.677 43.9449 95.6784 44.9965 94.4061 44.9965ZM96.5481 39.2692H96.4836C96.065 38.7829 95.2593 38.3435 94.2452 38.3435C92.1188 38.3435 90.1701 40.164 90.1701 42.5018C90.1701 44.8238 92.1188 46.6283 94.2452 46.6283C95.2593 46.6283 96.065 46.1888 96.4836 45.687H96.5481V46.2828C96.5481 47.8682 95.6784 48.715 94.2772 48.715C93.1341 48.715 92.4254 47.9149 92.1352 47.2403L90.5088 47.8993C90.9754 48.9972 92.2153 50.3472 94.2773 50.3472C96.4681 50.3472 98.3203 49.0916 98.3203 46.0316V38.5945H96.5482L96.5481 39.2692ZM99.609 46.3772H101.476V34.2006H99.609V46.3772ZM104.231 42.3604C104.183 40.7598 105.504 39.944 106.454 39.944C107.195 39.944 107.822 40.3051 108.033 40.8225L104.231 42.3604ZM110.029 40.9793C109.675 40.054 108.596 38.3435 106.389 38.3435C104.198 38.3435 102.379 40.0224 102.379 42.4859C102.379 44.8082 104.183 46.6283 106.598 46.6283C108.547 46.6283 109.675 45.4676 110.142 44.7926L108.692 43.851C108.209 44.5415 107.549 44.9966 106.598 44.9966C105.648 44.9966 104.972 44.5728 104.537 43.7411L110.222 41.4504L110.029 40.9793ZM64.7333 39.6146V41.3719H69.0496C68.9208 42.3604 68.5826 43.0821 68.0671 43.5843C67.4388 44.196 66.4563 44.871 64.7333 44.871C62.0757 44.871 59.9982 42.7842 59.9982 40.1952C59.9982 37.6062 62.0757 35.5191 64.7333 35.5191C66.1668 35.5191 67.2134 36.0684 67.9866 36.7745L69.2593 35.5346C68.1799 34.5306 66.7467 33.7617 64.7333 33.7617C61.0928 33.7617 58.0327 36.6489 58.0327 40.1952C58.0327 43.7411 61.0928 46.6283 64.7333 46.6283C66.6979 46.6283 68.1799 46.0006 69.3394 44.8239C70.5313 43.6627 70.9018 42.0309 70.9018 40.7127C70.9018 40.3051 70.8693 39.9285 70.805 39.6146H64.7333ZM75.8096 44.9965C74.5208 44.9965 73.4094 43.9609 73.4094 42.4859C73.4094 40.9953 74.5208 39.9757 75.8096 39.9757C77.0978 39.9757 78.2092 40.9953 78.2092 42.4859C78.2092 43.9609 77.0978 44.9965 75.8096 44.9965ZM75.8096 38.3435C73.4574 38.3435 71.5411 40.0852 71.5411 42.4859C71.5411 44.871 73.4574 46.6283 75.8096 46.6283C78.1609 46.6283 80.0775 44.871 80.0775 42.4859C80.0775 40.0852 78.1609 38.3435 75.8096 38.3435ZM85.12 44.9965C83.8321 44.9965 82.7204 43.9609 82.7204 42.4859C82.7204 40.9953 83.8322 39.9757 85.12 39.9757C86.4088 39.9757 87.5198 40.9953 87.5198 42.4859C87.5198 43.9609 86.4088 44.9965 85.12 44.9965ZM85.12 38.3435C82.7688 38.3435 80.8525 40.0852 80.8525 42.4859C80.8525 44.871 82.7688 46.6283 85.12 46.6283C87.4722 46.6283 89.3885 44.871 89.3885 42.4859C89.3885 40.0852 87.4722 38.3435 85.12 38.3435Z" fill="white"/>
<path d="M37.7097 36.0783L27.0669 47.0839C27.0673 47.0861 27.0681 47.088 27.0685 47.0904C27.3949 48.2855 28.5153 49.1654 29.845 49.1654C30.3766 49.1654 30.8756 49.0254 31.3036 48.7796L31.3376 48.7602L43.3181 42.0251L37.7097 36.0783Z" fill="white"/>
<path d="M48.4811 34.2034L48.4709 34.1966L43.2985 31.2754L37.4712 36.3272L43.3188 42.0234L48.4638 39.1312C49.3659 38.6568 49.9782 37.7303 49.9782 36.662C49.9782 35.6013 49.3742 34.6794 48.4811 34.2034Z" fill="white"/>
<path d="M27.0654 26.1953C27.0014 26.4252 26.9678 26.6659 26.9678 26.916V46.3639C26.9678 46.6134 27.001 46.855 27.0658 47.084L38.076 36.3597L27.0654 26.1953Z" fill="white"/>
<path d="M37.7893 36.6406L43.2984 31.2751L31.3313 24.5155C30.8964 24.2617 30.3887 24.1152 29.8454 24.1152C28.5157 24.1152 27.3938 24.9968 27.0673 26.1933C27.0669 26.1944 27.0669 26.1952 27.0669 26.1963L37.7893 36.6406Z" fill="white"/>
<path d="M64.381 26.686H61.4646V27.3891H63.65C63.5906 27.9629 63.3563 28.4133 62.9611 28.7405C62.5659 29.0678 62.0613 29.2321 61.4646 29.2321C60.8101 29.2321 60.2555 29.0099 59.8011 28.5686C59.3558 28.1182 59.1294 27.5611 59.1294 26.89C59.1294 26.219 59.3558 25.6619 59.8011 25.2115C60.2556 24.7702 60.8101 24.5495 61.4646 24.5495C61.8005 24.5495 62.1207 24.6058 62.4143 24.7291C62.7081 24.8523 62.9439 25.0243 63.1282 25.245L63.6828 24.7047C63.4313 24.4262 63.1126 24.2132 62.7173 24.0579C62.3221 23.9027 61.9098 23.8282 61.4645 23.8282C60.5914 23.8282 59.851 24.1234 59.2464 24.7124C58.6419 25.3028 58.3389 26.0302 58.3389 26.89C58.3389 27.7498 58.6419 28.4789 59.2464 29.0679C59.851 29.6567 60.5914 29.952 61.4645 29.952C62.3815 29.952 63.1126 29.6659 63.6749 29.0845C64.1701 28.6006 64.4231 27.9463 64.4231 27.1275C64.4231 26.989 64.406 26.8413 64.381 26.686ZM65.5108 23.9589V29.8211H69.0239V29.1012H66.284V27.2416H68.7553V26.5385H66.284V24.6803H69.0239V23.9589L65.5108 23.9589ZM73.95 24.6803V23.9589H69.8151V24.6803H71.496V29.821H72.2692V24.6803H73.95ZM77.6934 23.9589H76.9202V29.8211H77.6934V23.9589ZM82.7971 24.6803V23.9589H78.6623V24.6803H80.343V29.821H81.1162V24.6803H82.7971ZM90.5997 24.7214C90.0029 24.1233 89.2719 23.8281 88.3987 23.8281C87.5239 23.8281 86.7929 24.1233 86.1962 24.7123C85.5994 25.2937 85.3058 26.0226 85.3058 26.89C85.3058 27.7574 85.5994 28.4864 86.1962 29.0678C86.7929 29.6567 87.5239 29.952 88.3987 29.952C89.264 29.952 90.0029 29.6567 90.5997 29.0678C91.1964 28.4864 91.49 27.7574 91.49 26.89C91.49 26.0302 91.1964 25.3027 90.5997 24.7214ZM86.7507 25.2114C87.1959 24.7701 87.7426 24.5494 88.3987 24.5494C89.0532 24.5494 89.5999 24.7701 90.0373 25.2114C90.4825 25.6452 90.7011 26.2112 90.7011 26.89C90.7011 27.5703 90.4825 28.1348 90.0373 28.5686C89.5999 29.0099 89.0532 29.232 88.3987 29.232C87.7426 29.232 87.1959 29.0099 86.7507 28.5686C86.3148 28.1257 86.0962 27.5703 86.0962 26.89C86.0962 26.2112 86.3148 25.6543 86.7507 25.2114ZM93.327 26.1702L93.2943 25.0394H93.327L96.3856 29.821H97.1931V23.9589H96.4199V27.389L96.4527 28.5198H96.4199L93.4957 23.9589H92.5538V29.821H93.327V26.1702Z" fill="white" stroke="white" stroke-width="0.197884" stroke-miterlimit="10"/>
</g>
<defs>
<filter id="filter0_d_719_2473" x="0.303122" y="0.461325" width="168.36" height="72.3527" filterUnits="userSpaceOnUse" color-interpolation-filters="sRGB">
<feFlood flood-opacity="0" result="BackgroundImageFix"/>
<feColorMatrix in="SourceAlpha" type="matrix" values="0 0 0 0 0 0 0 0 0 0 0 0 0 0 0 0 0 0 127 0" result="hardAlpha"/>
<feOffset/>
<feGaussianBlur stdDeviation="8.34844"/>
<feComposite in2="hardAlpha" operator="out"/>
<feColorMatrix type="matrix" values="0 0 0 0 0.462158 0 0 0 0 0.458487 0 0 0 0 0.458487 0 0 0 0.05 0"/>
<feBlend mode="normal" in2="BackgroundImageFix" result="effect1_dropShadow_719_2473"/>
<feBlend mode="normal" in="SourceGraphic" in2="effect1_dropShadow_719_2473" result="shape"/>
</filter>
<clipPath id="clip0_719_2473">
<rect width="134.966" height="38.9594" fill="white" transform="translate(17 17.1582)"/>
</clipPath>
</defs>
</svg>
