<svg width="32" height="29" viewBox="0 0 32 29" fill="none" xmlns="http://www.w3.org/2000/svg">
<path d="M30.4 4.83333H23.4667V2.68518C23.4648 1.20283 22.2721 0.00183558 20.8 0H11.2C9.72787 0.00183558 8.53516 1.20283 8.53333 2.68518V4.83333H1.6C0.716406 4.83333 0 5.55471 0 6.44444V18.3988C0.00338541 19.08 0.429687 19.686 1.06667 19.9149V27.3889C1.06667 28.2786 1.78307 29 2.66667 29H29.3333C30.2169 29 30.9333 28.2786 30.9333 27.3889V19.9155C31.5703 19.6863 31.9969 19.08 32 18.3988V6.44444C32 5.55471 31.2836 4.83333 30.4 4.83333ZM9.6 2.68518C9.6 1.79546 10.3164 1.07407 11.2 1.07407H20.8C21.6836 1.07407 22.4 1.79546 22.4 2.68518V4.83333H21.3333V2.68518C21.3333 2.38861 21.0945 2.14815 20.8 2.14815H11.2C10.9055 2.14815 10.6667 2.38861 10.6667 2.68518V4.83333H9.6V2.68518ZM20.2667 4.83333H11.7333V3.22222H20.2667V4.83333ZM29.8667 27.3889C29.8667 27.6855 29.6279 27.9259 29.3333 27.9259H2.66667C2.37214 27.9259 2.13333 27.6855 2.13333 27.3889V20.0996L13.8667 21.729V23.0926C13.8667 23.9823 14.5831 24.7037 15.4667 24.7037H16.5333C17.4169 24.7037 18.1333 23.9823 18.1333 23.0926V21.729L29.8667 20.0996V27.3889ZM17.0667 23.0926C17.0667 23.3892 16.8279 23.6296 16.5333 23.6296H15.4667C15.1721 23.6296 14.9333 23.3892 14.9333 23.0926V19.8704C14.9333 19.5738 15.1721 19.3333 15.4667 19.3333H16.5333C16.8279 19.3333 17.0667 19.5738 17.0667 19.8704V23.0926ZM30.9333 18.3988C30.9336 18.6665 30.738 18.8936 30.4747 18.9311L30.3268 18.9515L18.1333 20.6447V19.8704C18.1333 18.9806 17.4169 18.2593 16.5333 18.2593H15.4667C14.5831 18.2593 13.8667 18.9806 13.8667 19.8704V20.6447L1.52578 18.9311C1.2625 18.8938 1.06641 18.6668 1.06667 18.3988V6.44444C1.06667 6.14787 1.30547 5.90741 1.6 5.90741H30.4C30.6945 5.90741 30.9333 6.14787 30.9333 6.44444V18.3988Z" fill="white"/>
</svg>
