<svg width="29" height="29" viewBox="0 0 29 29" fill="none" xmlns="http://www.w3.org/2000/svg">
<path d="M28.4375 28.8747H0.4375C0.321468 28.8747 0.210188 28.8286 0.128141 28.7466C0.0460937 28.6645 0 28.5533 0 28.4372V25.6416C0 25.5256 0.0460937 25.4143 0.128141 25.3322C0.210188 25.2502 0.321468 25.2041 0.4375 25.2041H28.4375C28.5535 25.2041 28.6648 25.2502 28.7469 25.3322C28.8289 25.4143 28.875 25.5256 28.875 25.6416V28.4372C28.875 28.5533 28.8289 28.6645 28.7469 28.7466C28.6648 28.8286 28.5535 28.8747 28.4375 28.8747ZM0.875 27.9997H28V26.0791H0.875V27.9997Z" fill="white"/>
<path d="M18.1024 26.0794C17.9864 26.0794 17.8751 26.0333 17.7931 25.9512C17.711 25.8692 17.6649 25.7579 17.6649 25.6419V0.875H2.625V25.6419C2.625 25.7579 2.57891 25.8692 2.49686 25.9512C2.41481 26.0333 2.30353 26.0794 2.1875 26.0794C2.07147 26.0794 1.96019 26.0333 1.87814 25.9512C1.79609 25.8692 1.75 25.7579 1.75 25.6419V0.4375C1.75 0.321468 1.79609 0.210188 1.87814 0.128141C1.96019 0.0460937 2.07147 0 2.1875 0H18.1038C18.2198 0 18.3311 0.0460937 18.4131 0.128141C18.4952 0.210188 18.5413 0.321468 18.5413 0.4375V25.6419C18.5413 25.6994 18.5299 25.7564 18.5078 25.8096C18.4858 25.8628 18.4534 25.9111 18.4126 25.9517C18.3719 25.9923 18.3235 26.0245 18.2703 26.0465C18.217 26.0684 18.16 26.0795 18.1024 26.0794Z" fill="white"/>
<path d="M26.6876 26.0797C26.5715 26.0797 26.4603 26.0336 26.3782 25.9516C26.2962 25.8695 26.2501 25.7583 26.2501 25.6422V9.48186L17.945 6.26886C17.8902 6.24905 17.8399 6.2185 17.7971 6.17899C17.7543 6.13949 17.7198 6.09183 17.6956 6.03881C17.6715 5.98579 17.6581 5.92848 17.6564 5.87024C17.6547 5.812 17.6647 5.75401 17.6857 5.69966C17.7067 5.64532 17.7383 5.59572 17.7788 5.55378C17.8192 5.51183 17.8676 5.47839 17.9212 5.4554C17.9747 5.43242 18.0323 5.42036 18.0906 5.41993C18.1488 5.41951 18.2066 5.43072 18.2604 5.45292L26.8464 8.77398C26.9287 8.80584 26.9994 8.86182 27.0493 8.93459C27.0992 9.00735 27.1259 9.09351 27.1259 9.18173V25.6422C27.1259 25.6998 27.1146 25.7567 27.0926 25.8099C27.0705 25.863 27.0382 25.9113 26.9975 25.9519C26.9568 25.9925 26.9084 26.0247 26.8553 26.0467C26.8021 26.0686 26.7451 26.0799 26.6876 26.0797Z" fill="white"/>
<path d="M8.56764 6.84326H4.88477C4.76873 6.84326 4.65745 6.79716 4.57541 6.71512C4.49336 6.63307 4.44727 6.52179 4.44727 6.40576V2.7627C4.44727 2.64666 4.49336 2.53538 4.57541 2.45334C4.65745 2.37129 4.76873 2.3252 4.88477 2.3252H8.56764C8.68367 2.3252 8.79495 2.37129 8.877 2.45334C8.95905 2.53538 9.00514 2.64666 9.00514 2.7627V6.40576C9.00514 6.52179 8.95905 6.63307 8.877 6.71512C8.79495 6.79716 8.68367 6.84326 8.56764 6.84326ZM5.32227 5.96826H8.13014V3.2002H5.32227V5.96826Z" fill="white"/>
<path d="M15.4036 6.84326H11.7207C11.6047 6.84326 11.4934 6.79716 11.4113 6.71512C11.3293 6.63307 11.2832 6.52179 11.2832 6.40576V2.7627C11.2832 2.64666 11.3293 2.53538 11.4113 2.45334C11.4934 2.37129 11.6047 2.3252 11.7207 2.3252H15.4036C15.5196 2.3252 15.6309 2.37129 15.7129 2.45334C15.795 2.53538 15.8411 2.64666 15.8411 2.7627V6.40576C15.8411 6.52179 15.795 6.63307 15.7129 6.71512C15.6309 6.79716 15.5196 6.84326 15.4036 6.84326ZM12.1582 5.96826H14.9661V3.2002H12.1582V5.96826Z" fill="white"/>
<path d="M8.56764 13.2085H4.88477C4.76873 13.2085 4.65745 13.1624 4.57541 13.0804C4.49336 12.9983 4.44727 12.887 4.44727 12.771V9.12793C4.44727 9.0119 4.49336 8.90062 4.57541 8.81857C4.65745 8.73652 4.76873 8.69043 4.88477 8.69043H8.56764C8.68367 8.69043 8.79495 8.73652 8.877 8.81857C8.95905 8.90062 9.00514 9.0119 9.00514 9.12793V12.771C9.00514 12.887 8.95905 12.9983 8.877 13.0804C8.79495 13.1624 8.68367 13.2085 8.56764 13.2085ZM5.32227 12.3335H8.13014V9.56543H5.32227V12.3335Z" fill="white"/>
<path d="M15.4036 13.2085H11.7207C11.6047 13.2085 11.4934 13.1624 11.4113 13.0804C11.3293 12.9983 11.2832 12.887 11.2832 12.771V9.12793C11.2832 9.0119 11.3293 8.90062 11.4113 8.81857C11.4934 8.73652 11.6047 8.69043 11.7207 8.69043H15.4036C15.5196 8.69043 15.6309 8.73652 15.7129 8.81857C15.795 8.90062 15.8411 9.0119 15.8411 9.12793V12.771C15.8411 12.887 15.795 12.9983 15.7129 13.0804C15.6309 13.1624 15.5196 13.2085 15.4036 13.2085ZM12.1582 12.3335H14.9661V9.56543H12.1582V12.3335Z" fill="white"/>
<path d="M13.7175 26.0793C13.6015 26.0793 13.4902 26.0332 13.4082 25.9511C13.3261 25.8691 13.28 25.7578 13.28 25.6418V16.3799H7.00977V25.6418C7.00977 25.7578 6.96367 25.8691 6.88163 25.9511C6.79958 26.0332 6.6883 26.0793 6.57227 26.0793C6.45623 26.0793 6.34495 26.0332 6.26291 25.9511C6.18086 25.8691 6.13477 25.7578 6.13477 25.6418V15.9424C6.13477 15.8264 6.18086 15.7151 6.26291 15.633C6.34495 15.551 6.45623 15.5049 6.57227 15.5049H13.7175C13.8335 15.5049 13.9448 15.551 14.0269 15.633C14.1089 15.7151 14.155 15.8264 14.155 15.9424V25.6418C14.155 25.7578 14.1089 25.8691 14.0269 25.9511C13.9448 26.0332 13.8335 26.0793 13.7175 26.0793Z" fill="white"/>
<path d="M23.8625 11.6406H20.9277C20.8117 11.6406 20.7004 11.5945 20.6184 11.5125C20.5363 11.4304 20.4902 11.3192 20.4902 11.2031C20.4902 11.0871 20.5363 10.9758 20.6184 10.8938C20.7004 10.8117 20.8117 10.7656 20.9277 10.7656H23.8625C23.9785 10.7656 24.0898 10.8117 24.1718 10.8938C24.2539 10.9758 24.3 11.0871 24.3 11.2031C24.3 11.3192 24.2539 11.4304 24.1718 11.5125C24.0898 11.5945 23.9785 11.6406 23.8625 11.6406Z" fill="white"/>
<path d="M23.8625 15.4629H20.9277C20.8117 15.4629 20.7004 15.4168 20.6184 15.3348C20.5363 15.2527 20.4902 15.1414 20.4902 15.0254C20.4902 14.9094 20.5363 14.7981 20.6184 14.716C20.7004 14.634 20.8117 14.5879 20.9277 14.5879H23.8625C23.9785 14.5879 24.0898 14.634 24.1718 14.716C24.2539 14.7981 24.3 14.9094 24.3 15.0254C24.3 15.1414 24.2539 15.2527 24.1718 15.3348C24.0898 15.4168 23.9785 15.4629 23.8625 15.4629Z" fill="white"/>
<path d="M23.8625 19.2842H20.9277C20.8117 19.2842 20.7004 19.2381 20.6184 19.156C20.5363 19.074 20.4902 18.9627 20.4902 18.8467C20.4902 18.7306 20.5363 18.6194 20.6184 18.5373C20.7004 18.4553 20.8117 18.4092 20.9277 18.4092H23.8625C23.9785 18.4092 24.0898 18.4553 24.1718 18.5373C24.2539 18.6194 24.3 18.7306 24.3 18.8467C24.3 18.9627 24.2539 19.074 24.1718 19.156C24.0898 19.2381 23.9785 19.2842 23.8625 19.2842Z" fill="white"/>
<path d="M23.8625 23.1064H20.9277C20.8117 23.1064 20.7004 23.0604 20.6184 22.9783C20.5363 22.8963 20.4902 22.785 20.4902 22.6689C20.4902 22.5529 20.5363 22.4416 20.6184 22.3596C20.7004 22.2775 20.8117 22.2314 20.9277 22.2314H23.8625C23.9785 22.2314 24.0898 22.2775 24.1718 22.3596C24.2539 22.4416 24.3 22.5529 24.3 22.6689C24.3 22.785 24.2539 22.8963 24.1718 22.9783C24.0898 23.0604 23.9785 23.1064 23.8625 23.1064Z" fill="white"/>
</svg>
