<svg width="22" height="29" viewBox="0 0 22 29" fill="none" xmlns="http://www.w3.org/2000/svg">
<path fill-rule="evenodd" clip-rule="evenodd" d="M10.9895 21.1575C10.4968 21.1575 10.0381 20.8857 9.69832 20.376C8.74695 21.1915 7.62568 20.8857 7.20096 19.7135C6.07969 20.2571 5.06036 19.6625 4.97542 18.4223C3.75222 18.6432 2.90277 17.8107 3.14062 16.5875C1.90043 16.5026 1.30582 15.4832 1.84946 14.362C0.677233 13.9542 0.371433 12.816 1.1869 11.8646C0.150578 11.1681 0.167567 9.97885 1.1869 9.28231C0.371433 8.33093 0.677233 7.20966 1.84946 6.78494C1.30582 5.66368 1.90043 4.64435 3.14062 4.5594C2.91976 3.3362 3.75222 2.48676 4.97542 2.7246C5.06036 1.48442 6.07969 0.889805 7.20096 1.43345C7.62568 0.261217 8.76394 -0.0445826 9.69832 0.770883C10.3949 -0.265438 11.5841 -0.248449 12.2806 0.770883C13.232 -0.0445826 14.3703 0.261217 14.778 1.43345C15.8993 0.906794 16.9186 1.48442 17.0035 2.7246C18.2267 2.50375 19.0762 3.31921 18.8383 4.5594C20.0785 4.64435 20.6731 5.66368 20.1295 6.78494C21.3017 7.19268 21.6075 8.33093 20.7921 9.28231C21.8284 9.97885 21.8284 11.1511 20.7921 11.8646C21.6075 12.816 21.3017 13.9373 20.1295 14.362C20.6731 15.4832 20.0785 16.5026 18.8383 16.5875C19.0762 17.8107 18.2437 18.6432 17.0035 18.4053C16.9186 19.6625 15.8993 20.2401 14.778 19.7135C14.3703 20.8857 13.232 21.1915 12.2806 20.376C11.9409 20.8857 11.4822 21.1575 10.9895 21.1575ZM9.76628 19.4756C10.242 19.4756 10.225 20.478 10.9895 20.478C11.72 20.478 11.754 19.5266 12.1617 19.4756C12.5694 19.4247 12.8413 20.3251 13.5548 20.1382C14.2683 19.9513 14.0305 19.0339 14.4212 18.864C14.812 18.7111 15.3047 19.5266 15.9332 19.1528C16.5788 18.7791 16.1201 17.9636 16.4599 17.6918C16.7827 17.437 17.4792 18.0995 17.9889 17.5729C18.5155 17.0632 17.853 16.3667 18.1078 16.0439C18.3626 15.7041 19.2121 16.1628 19.5689 15.5172C19.9256 14.8886 19.1271 14.396 19.28 14.0052C19.4499 13.6315 20.3673 13.8353 20.5542 13.1388C20.7411 12.4252 19.8407 12.1704 19.8916 11.7457C19.9426 11.338 20.894 11.304 20.894 10.5735C20.894 9.84294 19.9426 9.80896 19.8916 9.40123C19.8407 8.9935 20.7411 8.72167 20.5542 8.00814C20.3673 7.29461 19.4499 7.51546 19.28 7.14171C19.1271 6.75097 19.9426 6.25829 19.5689 5.61271C19.1951 4.98412 18.3626 5.44282 18.1078 5.10304C17.87 4.76327 18.5155 4.08371 17.9889 3.57405C17.4792 3.04739 16.7827 3.69297 16.4599 3.43814C16.1201 3.20029 16.5788 2.35085 15.9332 1.99408C15.3047 1.62033 14.812 2.43579 14.4212 2.2659C14.0475 2.113 14.2513 1.1956 13.5548 1.00873C12.8413 0.804861 12.5864 1.72226 12.1617 1.67129C11.754 1.62033 11.72 0.66895 10.9895 0.66895C10.259 0.66895 10.225 1.60334 9.81725 1.67129C9.40951 1.72226 9.13769 0.82185 8.42416 1.00873C7.71063 1.1956 7.93148 2.113 7.55773 2.2659C7.16698 2.43579 6.6743 1.62033 6.04572 1.99408C5.40014 2.35085 5.85884 3.1833 5.51906 3.43814C5.19627 3.69297 4.49973 3.04739 3.99006 3.57405C3.46341 4.08371 4.10898 4.76327 3.85415 5.10304C3.61631 5.44282 2.76686 4.98412 2.4101 5.61271C2.03634 6.25829 2.85181 6.75097 2.68192 7.14171C2.52902 7.51546 1.61162 7.29461 1.42474 8.00814C1.23787 8.72167 2.13828 8.97651 2.08731 9.40123C2.03634 9.80896 1.08497 9.84294 1.08497 10.5735C1.08497 11.304 2.01935 11.321 2.08731 11.7457C2.13828 12.1534 1.23787 12.4252 1.42474 13.1388C1.61162 13.8523 2.52902 13.6145 2.68192 14.0052C2.85181 14.396 2.03634 14.8886 2.4101 15.5172C2.76686 16.1628 3.61631 15.7041 3.85415 16.0439C4.10898 16.3667 3.46341 17.0632 3.99006 17.5729C4.49973 18.0995 5.17928 17.437 5.51906 17.6918C5.85884 17.9466 5.40014 18.7791 6.04572 19.1528C6.6743 19.5096 7.16698 18.7111 7.55773 18.864C7.94847 19.0339 7.71063 19.9513 8.42416 20.1382C9.1207 20.3251 9.37554 19.4756 9.76628 19.4756Z" fill="white"/>
<path fill-rule="evenodd" clip-rule="evenodd" d="M10.9894 17.7763C7.01402 17.7763 3.78613 14.5484 3.78613 10.573C3.78613 6.59762 7.01402 3.38672 10.9894 3.38672C14.9648 3.38672 18.1927 6.59762 18.1927 10.573C18.1927 14.5484 14.9648 17.7763 10.9894 17.7763ZM10.9894 4.06627C7.40476 4.06627 4.46569 6.98836 4.46569 10.573C4.46569 14.1747 7.40476 17.0967 10.9894 17.0967C14.5741 17.0967 17.5131 14.1747 17.5131 10.573C17.5131 6.98836 14.5741 4.06627 10.9894 4.06627Z" fill="white"/>
<path fill-rule="evenodd" clip-rule="evenodd" d="M8.1517 14.9567C7.94784 14.9567 7.79494 14.7868 7.81192 14.5999L7.9988 11.6779L6.13003 9.43533C5.97713 9.24845 6.07906 8.94265 6.3169 8.89168L9.15405 8.17815L10.7 5.69778C10.8359 5.5109 11.1587 5.5109 11.2777 5.69778L12.8406 8.17815L15.6608 8.89168C15.9156 8.95964 16.0006 9.24845 15.8477 9.43533L13.9789 11.6779L14.1658 14.5999C14.1828 14.8378 13.9449 15.0247 13.7071 14.9397L10.9888 13.8524C10.9039 13.8524 8.35557 14.9567 8.1517 14.9567ZM10.9888 13.1389C11.1417 13.1389 13.1464 13.9714 13.4522 14.1073L13.2823 11.5929C13.2823 11.508 13.2993 11.423 13.3673 11.3551L14.9812 9.41834L12.5348 8.80674C12.4499 8.77276 12.3819 8.72179 12.331 8.65384L10.9888 6.51324L9.64672 8.65384C9.59576 8.72179 9.5278 8.77276 9.44286 8.80674L6.99646 9.41834L8.6104 11.3551C8.66137 11.423 8.69535 11.508 8.69535 11.5929L8.52546 14.1073C8.83126 13.9883 10.8529 13.1389 10.9888 13.1389Z" fill="white"/>
<path fill-rule="evenodd" clip-rule="evenodd" d="M4.44793 28.9724C4.29503 28.9724 4.15912 28.8705 4.12514 28.7346L3.34365 25.8125L0.421567 26.594C0.132756 26.6619 -0.105088 26.3561 0.0478116 26.0843L4.78771 17.8787C4.94061 17.6069 5.70511 17.4709 5.65414 17.9976C5.55221 19.2208 6.29972 19.5606 7.2341 18.915C7.42098 18.7621 7.70979 18.881 7.76076 19.1358C7.89667 19.9853 8.42332 20.427 9.10288 19.9853C9.39169 19.7814 9.76544 20.1212 9.57857 20.427L4.75373 28.8025C4.68577 28.9214 4.56685 28.9724 4.44793 28.9724ZM3.5815 25.048C3.7344 25.048 3.87031 25.1499 3.90428 25.3028L4.56685 27.7492L8.55924 20.8347C7.93065 20.8347 7.43797 20.376 7.20013 19.7135C6.23176 20.1722 5.29737 19.8154 5.04254 18.8131L1.05015 25.7275L3.5815 25.048Z" fill="white"/>
<path fill-rule="evenodd" clip-rule="evenodd" d="M17.1721 28.9725C17.0532 28.9725 16.9342 28.9215 16.8663 28.8026L11.8546 20.1043C11.6507 19.7815 12.1434 19.2209 12.4662 19.5946C13.2307 20.529 14.0291 20.2742 14.216 19.1359C14.25 18.8811 14.5388 18.7622 14.7427 18.9151C15.6091 19.5267 16.3056 19.2548 16.3396 18.2695C16.3396 17.9297 16.7983 17.8108 16.9682 18.1166L21.5722 26.1013C21.7251 26.3562 21.4873 26.679 21.1984 26.594L18.2764 25.8125L17.4949 28.7346C17.4609 28.8705 17.325 28.9725 17.1721 28.9725ZM13.0268 20.8008L17.0532 27.7663L17.7157 25.3029C17.7497 25.133 17.9366 25.0141 18.1235 25.065L20.5699 25.7276L16.7983 19.1869C16.4246 19.9344 15.5921 20.1043 14.7766 19.7135C14.4878 20.529 13.8253 21.0047 13.0268 20.8008Z" fill="white"/>
</svg>
