<svg width="117" height="40" viewBox="0 0 117 40" fill="none" xmlns="http://www.w3.org/2000/svg">
<path fill-rule="evenodd" clip-rule="evenodd" d="M8.16771 9.5502L0 14.3028V5.54908L8.16771 0.796875V9.5502ZM8.16771 34.6997L0 39.4519V17.0165L8.16771 12.2643V34.6997Z" fill="#F58635"/>
<path fill-rule="evenodd" clip-rule="evenodd" d="M19.2453 8.9339L11.0776 13.7839V4.85005L19.2453 0V8.9339ZM19.2453 34.6014L11.0776 39.4515V16.5538L19.2453 11.7034V34.6014Z" fill="#F58635"/>
<path d="M36.9511 21.4714H31.9424V4.84961H36.9511V21.4714ZM60.4722 21.4714H55.4635V11.8472L50.9418 17.4202H50.5447L46.0109 11.8472V21.4714H41.1497V4.84961H45.6875L50.7987 11.086L55.9297 4.84961H60.4722V21.4714ZM79.058 10.0795C79.058 10.6932 78.9515 11.2946 78.7389 11.8839C78.5299 12.4688 78.1864 13.0173 77.7159 13.5249C77.241 14.0321 76.6068 14.4454 75.8007 14.7605C74.9986 15.0756 74.0536 15.2353 72.9647 15.2353H69.6791V21.4714H64.6704V4.84961H72.969C74.0536 4.84961 74.9986 5.00932 75.8047 5.32839C76.6069 5.64782 77.245 6.06509 77.7159 6.57661C78.1864 7.08812 78.5299 7.6446 78.7389 8.24209C78.9515 8.84353 79.058 9.45325 79.058 10.0795ZM73.9511 10.104C73.9511 9.31009 73.7176 8.76979 73.2475 8.4795C72.7809 8.18885 71.9417 8.04137 70.7345 8.04137H69.6791V12.0436H70.7593C71.5903 12.0436 72.2323 11.9903 72.6784 11.8882C73.1284 11.7856 73.4518 11.5936 73.6525 11.3112C73.8529 11.0328 73.9511 10.6274 73.9511 10.104ZM94.3621 21.4714H81.8364V4.84961H94.157V8.18885H86.8451V11.2331H93.8218V14.5724H86.8451V18.1325H94.3621V21.4714ZM116.483 21.4714H110.047L108.283 19.3886C108.226 19.3066 107.878 18.8814 107.24 18.112C106.601 17.3425 106.175 16.8145 105.967 16.5364C105.01 17.8296 104.228 18.8526 103.618 19.6012L102.096 21.4714H95.7531L102.804 12.8249L96.0765 4.84961H102.48L103.618 6.24099C104.273 7.05107 105.059 8.06187 105.967 9.26908C106.838 7.98849 107.534 7.03884 108.054 6.42121L109.359 4.84961H115.645L109.183 12.8249L116.483 21.4714Z" fill="#F58635"/>
<path d="M34.5971 34.4821H31.9424V25.6716H34.5971V34.4821ZM46.3882 34.4821H44.0195L39.4514 29.5759V34.4821H36.8226V25.6716H39.1784L43.7331 30.5522V25.6716H46.3882V34.4821ZM54.7541 31.9227C54.7541 32.4738 54.6135 32.9508 54.3314 33.3544C54.0494 33.7558 53.6566 34.0638 53.1537 34.2785C52.648 34.4933 52.0714 34.5994 51.4181 34.5994C51.2361 34.5994 51.0127 34.5886 50.748 34.5645C50.4836 34.5407 50.1321 34.476 49.694 34.3695C49.2537 34.2656 48.7979 34.1069 48.3231 33.9008V31.7404C48.7677 32.0163 49.2059 32.244 49.6354 32.426C50.067 32.6084 50.5267 32.6994 51.0192 32.6994C51.4724 32.6994 51.7656 32.6235 51.8998 32.4738C52.0321 32.322 52.0994 32.181 52.0994 32.0508C52.0994 31.8123 51.9843 31.6127 51.7566 31.4501C51.5289 31.2871 51.1972 31.118 50.7613 30.9447C50.2775 30.7407 49.8523 30.5195 49.4879 30.2806C49.1235 30.0403 48.8242 29.7407 48.5943 29.3806C48.362 29.0205 48.2472 28.5954 48.2472 28.1029C48.2472 27.6281 48.3641 27.1986 48.5961 26.8169C48.8307 26.4328 49.1864 26.127 49.6638 25.8971C50.1429 25.6694 50.7285 25.5547 51.4181 25.5547C51.9106 25.5547 52.3638 25.6022 52.7804 25.6975C53.1991 25.7928 53.544 25.8993 53.8153 26.0187C54.0861 26.1356 54.2707 26.2288 54.3725 26.2964V28.3612C54.0124 28.1029 53.6135 27.8709 53.171 27.6691C52.7282 27.4655 52.2555 27.3633 51.7501 27.3633C51.4203 27.3633 51.1818 27.4263 51.0321 27.5543C50.8847 27.6824 50.8109 27.8385 50.8109 28.0249C50.8109 28.1986 50.8847 28.3482 51.0321 28.4763C51.1818 28.6044 51.4465 28.7583 51.826 28.9403C52.5052 29.259 53.0451 29.5454 53.453 29.7993C53.8584 30.0529 54.1775 30.3483 54.4073 30.6799C54.6394 31.0119 54.7541 31.4281 54.7541 31.9227ZM65.7362 30.5367C65.7362 31.2918 65.5952 31.9335 65.3132 32.4652C65.0312 32.9986 64.6582 33.4195 64.1938 33.7274C63.7319 34.0379 63.2308 34.2609 62.6952 34.3954C62.1592 34.5321 61.6236 34.5994 61.0898 34.5994C60.3437 34.5994 59.6193 34.4713 58.9124 34.2177C58.2074 33.9641 57.6175 33.5321 57.1423 32.9206C56.6674 32.3109 56.4311 31.5148 56.4311 30.5367V25.6716H59.0858V29.849C59.0858 30.4306 59.1703 30.9098 59.3376 31.2893C59.5045 31.6688 59.7365 31.9465 60.0358 32.1224C60.3333 32.2983 60.6865 32.3868 61.0923 32.3868C61.4826 32.3868 61.8276 32.3001 62.129 32.1267C62.4283 31.953 62.6625 31.6778 62.8294 31.3004C62.9966 30.9227 63.0812 30.4436 63.0812 29.8623V25.6716H65.7362V30.5367ZM76.3493 34.4821H73.4967L72.8029 32.9206C72.5489 32.3479 72.319 31.9292 72.1151 31.6645C71.9133 31.4001 71.714 31.2306 71.5208 31.1569C71.328 31.0835 71.0805 31.0465 70.7748 31.0465H70.4755V34.4821H67.8204V25.6716H72.3388C73.0672 25.6716 73.6662 25.8191 74.1302 26.1162C74.5968 26.4133 74.9327 26.7734 75.1389 27.1986C75.345 27.6216 75.4468 28.0249 75.4468 28.4069C75.4468 28.8515 75.3601 29.2267 75.1888 29.5346C75.0173 29.8425 74.8374 30.0662 74.6464 30.2069C74.4558 30.3461 74.241 30.4803 74.0047 30.6062C74.2885 30.7709 74.5227 30.9684 74.7072 31.1939C74.8917 31.4216 75.141 31.8796 75.4601 32.5691L76.3493 34.4821ZM72.7399 28.4565C72.7399 28.049 72.6054 27.7648 72.3388 27.6043C72.0719 27.4436 71.6381 27.3633 71.0349 27.3633H70.4755V29.4846H71.0482C71.6967 29.4846 72.141 29.413 72.3798 29.2723C72.6208 29.1288 72.7399 28.858 72.7399 28.4565ZM87.2271 34.4821H84.5069L83.7889 32.6994H79.9626L79.2321 34.4821H76.5119L80.4076 25.6716H83.3443L87.2271 34.4821ZM83.1796 31.1637L81.8889 27.949L80.5853 31.1637H83.1796ZM97.9614 34.4821H95.593L91.025 29.5759V34.4821H88.3962V25.6716H90.7516L95.3067 30.5522V25.6716H97.9614V34.4821ZM108.056 33.8228C107.692 34.0138 107.319 34.1656 106.94 34.2803C106.558 34.3954 106.174 34.4782 105.786 34.5256C105.397 34.5756 104.996 34.5994 104.582 34.5994C103.814 34.5994 103.126 34.4933 102.519 34.2803C101.911 34.0702 101.384 33.758 100.938 33.3436C100.491 32.9314 100.155 32.4479 99.9333 31.8947C99.71 31.3414 99.5992 30.7342 99.5992 30.0727C99.5992 29.3155 99.7315 28.6518 99.9941 28.0813C100.257 27.5108 100.623 27.0382 101.096 26.6608C101.569 26.2831 102.107 26.0058 102.71 25.8256C103.313 25.6457 103.95 25.5547 104.619 25.5547C105.618 25.5547 106.753 25.7756 108.02 26.2205V28.5565C107.584 28.2853 107.152 28.0597 106.727 27.8795C106.3 27.6997 105.799 27.6108 105.224 27.6108C104.71 27.6108 104.232 27.7126 103.788 27.9166C103.343 28.1184 102.985 28.4087 102.714 28.7864C102.443 29.1637 102.306 29.604 102.306 30.1094C102.306 30.5544 102.425 30.9619 102.662 31.3328C102.898 31.7037 103.228 31.9965 103.651 32.2155C104.072 32.4346 104.547 32.5432 105.076 32.5432C105.506 32.5432 105.909 32.4911 106.291 32.3868C106.673 32.2828 106.993 32.1681 107.254 32.0422C107.514 31.9141 107.781 31.7645 108.056 31.5886V33.8228ZM116.483 34.4821H109.844V25.6716H116.375V27.4414H112.499V29.0554H116.197V30.8252H112.499V32.7123H116.483V34.4821Z" fill="#F58635"/>
</svg>
