<svg width="145" height="49" viewBox="0 0 145 49" fill="none" xmlns="http://www.w3.org/2000/svg">
<path fill-rule="evenodd" clip-rule="evenodd" d="M10.1446 11.8612L0 17.764V6.89165L10.1446 0.989258V11.8612ZM10.1446 43.0977L0 49.0001V21.1345L10.1446 15.2321V43.0977Z" fill="#ED3237"/>
<path fill-rule="evenodd" clip-rule="evenodd" d="M23.9038 11.0962L13.7593 17.1201V6.02392L23.9038 0V11.0962ZM23.9038 42.9761L13.7593 49V20.5603L23.9038 14.5359V42.9761Z" fill="#F58635"/>
<path d="M45.8967 26.6692H39.6758V6.02441H45.8967V26.6692ZM75.1107 26.6692H68.8897V14.7156L63.2737 21.6375H62.7805L57.1493 14.7156V26.6692H51.1115V6.02441H56.7476L63.0959 13.7702L69.4688 6.02441H75.1107V26.6692ZM98.1948 12.5201C98.1948 13.2823 98.0626 14.0293 97.7985 14.7612C97.539 15.4876 97.1123 16.169 96.5279 16.7994C95.9382 17.4293 95.1505 17.9427 94.1493 18.3341C93.1529 18.7254 91.9793 18.9238 90.6269 18.9238H86.546V26.6692H80.325V6.02441H90.6322C91.9793 6.02441 93.153 6.22278 94.1542 6.61908C95.1505 7.01582 95.9431 7.53408 96.5279 8.1694C97.1123 8.80472 97.539 9.49588 97.7985 10.238C98.0626 10.985 98.1948 11.7423 98.1948 12.5201ZM91.8519 12.5505C91.8519 11.5645 91.562 10.8934 90.978 10.5329C90.3986 10.1719 89.3562 9.98868 87.8568 9.98868H86.546V14.9595H87.8877C88.9197 14.9595 89.7172 14.8934 90.2712 14.7665C90.8301 14.6392 91.2318 14.4006 91.4811 14.0499C91.73 13.7041 91.8519 13.2006 91.8519 12.5505ZM117.203 26.6692H101.646V6.02441H116.948V10.1719H107.867V13.9529H116.532V18.1004H107.867V22.5222H117.203V26.6692ZM144.678 26.6692H136.684L134.493 24.0823C134.422 23.9804 133.99 23.4524 133.197 22.4967C132.405 21.541 131.876 20.8852 131.617 20.5398C130.428 22.146 129.456 23.4166 128.7 24.3464L126.809 26.6692H118.931L127.688 15.9299L119.332 6.02441H127.286L128.7 7.75255C129.513 8.7587 130.488 10.0141 131.617 11.5135C132.699 9.92301 133.563 8.74351 134.209 7.97639L135.83 6.02441H143.637L135.612 15.9299L144.678 26.6692Z" fill="#373435"/>
<path d="M42.973 42.8294H39.6758V31.8864H42.973V42.8294ZM57.618 42.8294H54.6759L49.0023 36.7357V42.8294H45.7372V31.8864H48.6632L54.3203 37.9483V31.8864H57.618V42.8294ZM68.0087 39.6505C68.0087 40.335 67.834 40.9274 67.4837 41.4287C67.1335 41.9273 66.6456 42.3098 66.021 42.5765C65.3928 42.8432 64.6766 42.975 63.8653 42.975C63.6392 42.975 63.3617 42.9616 63.0329 42.9317C62.7045 42.9022 62.268 42.8218 61.7239 42.6895C61.177 42.5604 60.6109 42.3634 60.0212 42.1074V39.424C60.5734 39.7667 61.1176 40.0495 61.651 40.2756C62.1872 40.5021 62.7582 40.6151 63.3698 40.6151C63.9327 40.6151 64.2969 40.5209 64.4635 40.335C64.6279 40.1465 64.7115 39.9713 64.7115 39.8096C64.7115 39.5134 64.5685 39.2654 64.2857 39.0635C64.0029 38.8611 63.5909 38.6511 63.0494 38.4357C62.4485 38.1824 61.9204 37.9076 61.4679 37.611C61.0153 37.3125 60.6435 36.9404 60.3581 36.4931C60.0694 36.0459 59.9269 35.5178 59.9269 34.9062C59.9269 34.3164 60.0721 33.783 60.3603 33.309C60.6516 32.8318 61.0935 32.452 61.6863 32.1665C62.2814 31.8837 63.0088 31.7412 63.8653 31.7412C64.4769 31.7412 65.0398 31.8002 65.5572 31.9186C66.0773 32.037 66.5057 32.1692 66.8426 32.3176C67.179 32.4628 67.4082 32.5785 67.5347 32.6625V35.227C67.0874 34.9062 66.592 34.618 66.0424 34.3674C65.4924 34.1145 64.9054 33.9876 64.2776 33.9876C63.8679 33.9876 63.5717 34.0658 63.3859 34.2249C63.2027 34.3839 63.1111 34.5778 63.1111 34.8092C63.1111 35.025 63.2027 35.2109 63.3859 35.3699C63.5717 35.529 63.9006 35.7202 64.3719 35.9463C65.2154 36.3421 65.886 36.6978 66.3927 37.0132C66.8962 37.3282 67.2925 37.695 67.578 38.1069C67.8662 38.5193 68.0087 39.0362 68.0087 39.6505ZM81.6488 37.9291C81.6488 38.8669 81.4737 39.6639 81.1234 40.3243C80.7732 40.9868 80.3098 41.5096 79.7331 41.892C79.1594 42.2776 78.537 42.5546 77.8718 42.7217C77.2061 42.8915 76.5408 42.975 75.8778 42.975C74.9512 42.975 74.0514 42.816 73.1735 42.501C72.2978 42.186 71.5651 41.6494 70.9749 40.8899C70.3851 40.1326 70.0916 39.1439 70.0916 37.9291V31.8864H73.3888V37.0749C73.3888 37.7973 73.4938 38.3924 73.7015 38.8638C73.9089 39.3351 74.197 39.68 74.5687 39.8985C74.9382 40.117 75.377 40.2269 75.8809 40.2269C76.3657 40.2269 76.7941 40.1192 77.1685 39.9039C77.5403 39.6881 77.8311 39.3463 78.0384 38.8776C78.2462 38.4085 78.3512 37.8134 78.3512 37.0914V31.8864H81.6488V37.9291ZM94.8306 42.8294H91.2876L90.4258 40.8899C90.1104 40.1786 89.8249 39.6586 89.5716 39.3297C89.3209 39.0014 89.0734 38.7909 88.8335 38.6993C88.594 38.6082 88.2866 38.5622 87.9069 38.5622H87.5352V42.8294H84.2375V31.8864H89.8495C90.7542 31.8864 91.4981 32.0696 92.0744 32.4386C92.6539 32.8077 93.0712 33.2549 93.3272 33.783C93.5832 34.3084 93.7096 34.8092 93.7096 35.2837C93.7096 35.8359 93.602 36.3019 93.3893 36.6844C93.1762 37.0668 92.9528 37.3447 92.7156 37.5194C92.4788 37.6923 92.212 37.8589 91.9185 38.0153C92.271 38.2199 92.5619 38.4652 92.7911 38.7454C93.0203 39.0282 93.3299 39.5969 93.7262 40.4534L94.8306 42.8294ZM90.3476 35.3454C90.3476 34.8392 90.1805 34.4862 89.8495 34.287C89.518 34.0872 88.9791 33.9876 88.2299 33.9876H87.5352V36.6223H88.2464C89.052 36.6223 89.6037 36.5334 89.9004 36.3587C90.1997 36.1804 90.3476 35.844 90.3476 35.3454ZM108.341 42.8294H104.963L104.071 40.6151H99.3185L98.4111 42.8294H95.0325L99.8712 31.8864H103.519L108.341 42.8294ZM103.314 38.7078L101.711 34.715L100.092 38.7078H103.314ZM121.674 42.8294H118.732L113.058 36.7357V42.8294H109.793V31.8864H112.719L118.376 37.9483V31.8864H121.674V42.8294ZM134.212 42.0104C133.759 42.2477 133.296 42.4362 132.825 42.5787C132.35 42.7217 131.873 42.8244 131.391 42.8834C130.909 42.9455 130.411 42.975 129.896 42.975C128.943 42.975 128.088 42.8432 127.334 42.5787C126.58 42.3178 125.925 41.93 125.37 41.4153C124.815 40.9033 124.398 40.3028 124.123 39.6157C123.845 38.9285 123.708 38.1744 123.708 37.3527C123.708 36.4123 123.872 35.588 124.198 34.8794C124.524 34.1708 124.979 33.5837 125.567 33.1151C126.154 32.6459 126.822 32.3015 127.571 32.0776C128.32 31.8542 129.112 31.7412 129.942 31.7412C131.184 31.7412 132.593 32.0155 134.166 32.5682V35.4696C133.625 35.1327 133.089 34.8526 132.56 34.6287C132.03 34.4054 131.407 34.295 130.694 34.295C130.055 34.295 129.462 34.4214 128.91 34.6748C128.358 34.9254 127.913 35.286 127.577 35.7551C127.239 36.2237 127.07 36.7706 127.07 37.3983C127.07 37.951 127.218 38.4572 127.512 38.9178C127.806 39.3784 128.215 39.7421 128.74 40.0142C129.263 40.2863 129.853 40.4212 130.51 40.4212C131.044 40.4212 131.545 40.3564 132.019 40.2269C132.493 40.0978 132.892 39.9552 133.215 39.7989C133.539 39.6398 133.87 39.4539 134.212 39.2355V42.0104ZM144.678 42.8294H136.432V31.8864H144.544V34.0846H139.73V36.0893H144.323V38.2874H139.73V40.6312H144.678V42.8294Z" fill="#373435"/>
</svg>
