<svg width="50" height="45" viewBox="0 0 50 45" fill="none" xmlns="http://www.w3.org/2000/svg">
<path d="M42.7083 44.1966H5.20833C2.33542 44.1966 0 41.8591 0 38.9883V5.65495C0 5.07995 0.466667 4.61328 1.04167 4.61328C1.61667 4.61328 2.08333 5.07995 2.08333 5.65495V38.9883C2.08333 40.7112 3.48542 42.1133 5.20833 42.1133H42.7083C43.2812 42.1133 43.75 41.6466 43.75 41.0716V32.7383C43.75 32.1633 44.2167 31.6966 44.7917 31.6966C45.3667 31.6966 45.8333 32.1633 45.8333 32.7383V41.0716C45.8333 42.7945 44.4312 44.1966 42.7083 44.1966Z" fill="white"/>
<path d="M44.7917 21.2806C44.2167 21.2806 43.75 20.8139 43.75 20.2389V11.9056C43.75 11.3306 43.2812 10.8639 42.7083 10.8639H5.20833C2.33542 10.8639 0 8.52643 0 5.6556C0 2.78477 2.33542 0.447266 5.20833 0.447266H36.4583C38.1812 0.447266 39.5833 1.84935 39.5833 3.57227V8.7806H42.7083C44.4312 8.7806 45.8333 10.1827 45.8333 11.9056V20.2389C45.8333 20.8139 45.3667 21.2806 44.7917 21.2806ZM5.20833 2.5306C3.48542 2.5306 2.08333 3.93268 2.08333 5.6556C2.08333 7.37852 3.48542 8.7806 5.20833 8.7806H37.5V3.57227C37.5 2.99727 37.0312 2.5306 36.4583 2.5306H5.20833Z" fill="white"/>
<path d="M48.9583 33.7806H38.5417C34.5208 33.7806 31.25 30.5098 31.25 26.4889C31.25 22.4681 34.5208 19.1973 38.5417 19.1973H48.9583C49.5333 19.1973 50 19.6639 50 20.2389V32.7389C50 33.3139 49.5333 33.7806 48.9583 33.7806ZM38.5417 21.2806C35.6687 21.2806 33.3333 23.6181 33.3333 26.4889C33.3333 29.3598 35.6687 31.6973 38.5417 31.6973H47.9167V21.2806H38.5417Z" fill="white"/>
<path d="M38.541 29.6133C36.8181 29.6133 35.416 28.2112 35.416 26.4883C35.416 24.7654 36.8181 23.3633 38.541 23.3633C40.2639 23.3633 41.666 24.7654 41.666 26.4883C41.666 28.2112 40.2639 29.6133 38.541 29.6133ZM38.541 25.4466C37.9681 25.4466 37.4993 25.9133 37.4993 26.4883C37.4993 27.0633 37.9681 27.5299 38.541 27.5299C39.1139 27.5299 39.5827 27.0633 39.5827 26.4883C39.5827 25.9133 39.1139 25.4466 38.541 25.4466Z" fill="white"/>
</svg>
