<svg width="117" height="40" viewBox="0 0 117 40" fill="none" xmlns="http://www.w3.org/2000/svg">
<path fill-rule="evenodd" clip-rule="evenodd" d="M8.16771 9.5502L0 14.3028V5.54908L8.16771 0.796875V9.5502ZM8.16771 34.6997L0 39.4519V17.0165L8.16771 12.2643V34.6997Z" fill="#373435"/>
<path fill-rule="evenodd" clip-rule="evenodd" d="M19.2458 8.9339L11.0781 13.7839V4.85005L19.2458 0V8.9339ZM19.2458 34.6014L11.0781 39.4515V16.5538L19.2458 11.7034V34.6014Z" fill="#373435"/>
<path d="M36.952 21.4723H31.9434V4.85059H36.952V21.4723ZM60.4731 21.4723H55.4645V11.8481L50.9428 17.4212H50.5457L46.0118 11.8481V21.4723H41.1506V4.85059H45.6885L50.7997 11.087L55.9306 4.85059H60.4731V21.4723ZM79.0589 10.0805C79.0589 10.6942 78.9524 11.2956 78.7399 11.8848C78.5309 12.4697 78.1873 13.0183 77.7168 13.5259C77.242 14.0331 76.6078 14.4464 75.8017 14.7615C74.9995 15.0766 74.0546 15.2363 72.9657 15.2363H69.6801V21.4723H64.6714V4.85059H72.97C74.0546 4.85059 74.9995 5.0103 75.8057 5.32937C76.6078 5.6488 77.246 6.06607 77.7168 6.57758C78.1873 7.0891 78.5309 7.64558 78.7399 8.24307C78.9524 8.84451 79.0589 9.45423 79.0589 10.0805ZM73.952 10.105C73.952 9.31106 73.7186 8.77077 73.2484 8.48048C72.7819 8.18983 71.9427 8.04234 70.7355 8.04234H69.6801V12.0445H70.7603C71.5912 12.0445 72.2333 11.9913 72.6794 11.8891C73.1294 11.7866 73.4528 11.5945 73.6535 11.3122C73.8538 11.0337 73.952 10.6283 73.952 10.105ZM94.363 21.4723H81.8374V4.85059H94.158V8.18983H86.8461V11.2341H93.8227V14.5733H86.8461V18.1335H94.363V21.4723ZM116.484 21.4723H110.048L108.284 19.3896C108.227 19.3076 107.879 18.8824 107.241 18.1129C106.602 17.3435 106.176 16.8155 105.968 16.5374C105.011 17.8306 104.229 18.8536 103.619 19.6022L102.097 21.4723H95.7541L102.805 12.8258L96.0774 4.85059H102.481L103.619 6.24197C104.274 7.05205 105.06 8.06285 105.968 9.27005C106.839 7.98947 107.535 7.03982 108.055 6.42218L109.36 4.85059H115.646L109.184 12.8258L116.484 21.4723Z" fill="#373435"/>
<path d="M34.5981 34.4841H31.9434V25.6735H34.5981V34.4841ZM46.3892 34.4841H44.0205L39.4524 29.5779V34.4841H36.8236V25.6735H39.1794L43.7341 30.5542V25.6735H46.3892V34.4841ZM54.7551 31.9247C54.7551 32.4758 54.6144 32.9528 54.3324 33.3564C54.0504 33.7578 53.6576 34.0657 53.1547 34.2805C52.649 34.4952 52.0723 34.6013 51.4191 34.6013C51.2371 34.6013 51.0137 34.5905 50.7489 34.5664C50.4845 34.5427 50.1331 34.4779 49.695 34.3715C49.2547 34.2675 48.7989 34.1089 48.3241 33.9028V31.7423C48.7687 32.0182 49.2068 32.2459 49.6363 32.4279C50.068 32.6103 50.5277 32.7013 51.0202 32.7013C51.4734 32.7013 51.7666 32.6254 51.9007 32.4758C52.0331 32.324 52.1004 32.183 52.1004 32.0527C52.1004 31.8143 51.9853 31.6146 51.7576 31.452C51.5299 31.2891 51.1982 31.12 50.7622 30.9466C50.2784 30.7427 49.8532 30.5214 49.4889 30.2826C49.1245 30.0423 48.8252 29.7427 48.5953 29.3826C48.3629 29.0225 48.2482 28.5973 48.2482 28.1049C48.2482 27.63 48.3651 27.2005 48.5971 26.8189C48.8317 26.4347 49.1874 26.1289 49.6648 25.8991C50.1439 25.6714 50.7295 25.5566 51.4191 25.5566C51.9115 25.5566 52.3648 25.6041 52.7813 25.6994C53.2 25.7948 53.545 25.9012 53.8162 26.0207C54.0871 26.1376 54.2716 26.2307 54.3734 26.2984V28.3631C54.0134 28.1049 53.6144 27.8728 53.172 27.671C52.7292 27.4674 52.2565 27.3653 51.7511 27.3653C51.4212 27.3653 51.1828 27.4282 51.0331 27.5563C50.8856 27.6844 50.8119 27.8405 50.8119 28.0268C50.8119 28.2006 50.8856 28.3502 51.0331 28.4783C51.1828 28.6063 51.4475 28.7603 51.827 28.9423C52.5061 29.261 53.0461 29.5473 53.454 29.8013C53.8594 30.0549 54.1785 30.3502 54.4083 30.6819C54.6403 31.0139 54.7551 31.4301 54.7551 31.9247ZM65.7372 30.5387C65.7372 31.2937 65.5962 31.9355 65.3142 32.4671C65.0322 33.0006 64.6591 33.4215 64.1948 33.7294C63.7329 34.0398 63.2318 34.2628 62.6962 34.3974C62.1602 34.5341 61.6246 34.6013 61.0908 34.6013C60.3447 34.6013 59.6202 34.4733 58.9134 34.2197C58.2084 33.9661 57.6184 33.5341 57.1432 32.9225C56.6684 32.3128 56.4321 31.5168 56.4321 30.5387V25.6735H59.0868V29.8509C59.0868 30.4326 59.1713 30.9117 59.3386 31.2912C59.5055 31.6707 59.7375 31.9484 60.0368 32.1243C60.3343 32.3002 60.6875 32.3887 61.0933 32.3887C61.4836 32.3887 61.8285 32.302 62.13 32.1286C62.4293 31.9549 62.6634 31.6797 62.8304 31.3024C62.9976 30.9247 63.0822 30.4455 63.0822 29.8642V25.6735H65.7372V30.5387ZM76.3503 34.4841H73.4977L72.8038 32.9225C72.5499 32.3499 72.32 31.9312 72.1161 31.6664C71.9143 31.402 71.715 31.2326 71.5218 31.1589C71.329 31.0855 71.0815 31.0484 70.7758 31.0484H70.4765V34.4841H67.8214V25.6735H72.3398C73.0682 25.6735 73.6671 25.821 74.1312 26.1182C74.5977 26.4153 74.9337 26.7754 75.1398 27.2005C75.3459 27.6236 75.4477 28.0268 75.4477 28.4088C75.4477 28.8534 75.361 29.2286 75.1898 29.5365C75.0182 29.8445 74.8384 30.0682 74.6474 30.2088C74.4567 30.3481 74.242 30.4822 74.0056 30.6081C74.2895 30.7729 74.5236 30.9704 74.7082 31.1959C74.8927 31.4236 75.142 31.8815 75.4611 32.5711L76.3503 34.4841ZM72.7409 28.4585C72.7409 28.0509 72.6063 27.7667 72.3398 27.6063C72.0729 27.4455 71.6391 27.3653 71.0358 27.3653H70.4765V29.4865H71.0491C71.6977 29.4865 72.1419 29.415 72.3808 29.2743C72.6218 29.1308 72.7409 28.8599 72.7409 28.4585ZM87.2281 34.4841H84.5079L83.7899 32.7013H79.9636L79.233 34.4841H76.5129L80.4086 25.6735H83.3453L87.2281 34.4841ZM83.1806 31.1657L81.8899 27.9509L80.5863 31.1657H83.1806ZM97.9623 34.4841H95.594L91.026 29.5779V34.4841H88.3972V25.6735H90.7526L95.3076 30.5542V25.6735H97.9623V34.4841ZM108.057 33.8247C107.693 34.0157 107.32 34.1675 106.94 34.2823C106.558 34.3974 106.175 34.4801 105.787 34.5276C105.398 34.5776 104.997 34.6013 104.583 34.6013C103.815 34.6013 103.127 34.4952 102.52 34.2823C101.912 34.0722 101.385 33.76 100.939 33.3456C100.492 32.9333 100.156 32.4499 99.9343 31.8966C99.7109 31.3434 99.6001 30.7362 99.6001 30.0747C99.6001 29.3175 99.7325 28.6538 99.9951 28.0833C100.258 27.5128 100.624 27.0401 101.097 26.6628C101.57 26.2851 102.108 26.0077 102.711 25.8275C103.313 25.6476 103.951 25.5566 104.62 25.5566C105.619 25.5566 106.754 25.7775 108.021 26.2225V28.5585C107.585 28.2872 107.153 28.0617 106.728 27.8815C106.301 27.7016 105.799 27.6128 105.225 27.6128C104.711 27.6128 104.233 27.7146 103.789 27.9185C103.344 28.1203 102.986 28.4106 102.715 28.7883C102.444 29.1657 102.307 29.606 102.307 30.1114C102.307 30.5563 102.426 30.9639 102.663 31.3348C102.899 31.7056 103.229 31.9984 103.652 32.2175C104.073 32.4366 104.548 32.5452 105.077 32.5452C105.507 32.5452 105.91 32.493 106.292 32.3887C106.674 32.2848 106.994 32.17 107.255 32.0441C107.515 31.9161 107.782 31.7664 108.057 31.5905V33.8247ZM116.484 34.4841H109.845V25.6735H116.376V27.4433H112.5V29.0574H116.198V30.8272H112.5V32.7143H116.484V34.4841Z" fill="#373435"/>
</svg>
