<svg width="601" height="204" viewBox="0 0 601 204" fill="none" xmlns="http://www.w3.org/2000/svg">
<path fill-rule="evenodd" clip-rule="evenodd" d="M42.141 49.2719L0 73.7926V28.6282L42.141 4.10938V49.2719ZM42.141 179.03L0 203.549V87.7939L42.141 63.275V179.03Z" fill="#ED3237"/>
<path fill-rule="evenodd" clip-rule="evenodd" d="M99.2983 46.0942L57.1572 71.1179V25.0237L99.2983 0V46.0942ZM99.2983 178.525L57.1572 203.549V85.4086L99.2983 60.3831V178.525Z" fill="#F58635"/>
<path d="M190.658 110.785H164.815V25.0254H190.658V110.785ZM312.014 110.785H286.172V61.1291L262.843 89.8832H260.794L237.401 61.1291V110.785H212.32V25.0254H235.733L262.104 57.2019L288.577 25.0254H312.014V110.785ZM407.907 52.009C407.907 55.1752 407.357 58.2783 406.261 61.3184C405.182 64.3361 403.41 67.1664 400.982 69.7852C398.532 72.4021 395.26 74.5345 391.101 76.1603C386.963 77.7861 382.087 78.6102 376.469 78.6102H359.517V110.785H333.675V25.0254H376.491C382.087 25.0254 386.963 25.8494 391.122 27.4957C395.26 29.1437 398.553 31.2966 400.982 33.9358C403.41 36.5749 405.182 39.4461 406.261 42.5288C407.357 45.6319 407.907 48.7778 407.907 52.009ZM381.558 52.1352C381.558 48.0391 380.354 45.2515 377.928 43.7537C375.521 42.2541 371.191 41.4932 364.962 41.4932H359.517V62.1424H365.09C369.377 62.1424 372.69 61.8677 374.992 61.3406C377.313 60.8117 378.982 59.8206 380.018 58.3637C381.051 56.9272 381.558 54.8356 381.558 52.1352ZM486.868 110.785H422.242V25.0254H485.81V42.2541H448.084V57.961H484.08V75.1897H448.084V93.558H486.868V110.785ZM601.001 110.785H567.793L558.693 100.039C558.398 99.6158 556.603 97.422 553.309 93.4522C550.016 89.4823 547.819 86.7578 546.744 85.3231C541.804 91.9953 537.769 97.2736 534.625 101.136L526.771 110.785H494.045L530.423 66.1735L495.713 25.0254H528.755L534.625 32.2042C538.003 36.3838 542.056 41.599 546.744 47.8275C551.24 41.2204 554.829 36.3207 557.511 33.134L564.246 25.0254H596.675L563.338 66.1735L601.001 110.785Z" fill="white"/>
<path d="M178.512 177.915H164.815V132.458H178.512V177.915ZM239.348 177.915H227.127L203.558 152.602V177.915H189.995V132.458H202.15L225.65 157.639V132.458H239.348V177.915ZM282.512 164.71C282.512 167.554 281.786 170.015 280.331 172.097C278.876 174.168 276.849 175.757 274.255 176.865C271.645 177.973 268.67 178.52 265.3 178.52C264.361 178.52 263.208 178.465 261.842 178.34C260.478 178.218 258.665 177.884 256.404 177.334C254.133 176.798 251.781 175.98 249.331 174.916V163.769C251.625 165.193 253.886 166.368 256.102 167.307C258.329 168.248 260.701 168.717 263.242 168.717C265.58 168.717 267.093 168.326 267.785 167.554C268.468 166.77 268.815 166.043 268.815 165.371C268.815 164.14 268.221 163.11 267.046 162.272C265.872 161.431 264.16 160.558 261.911 159.664C259.415 158.612 257.221 157.47 255.341 156.238C253.461 154.998 251.917 153.452 250.731 151.594C249.532 149.736 248.94 147.543 248.94 145.002C248.94 142.552 249.543 140.336 250.74 138.367C251.95 136.385 253.786 134.807 256.248 133.621C258.721 132.447 261.742 131.854 265.3 131.854C267.841 131.854 270.179 132.099 272.328 132.591C274.489 133.083 276.269 133.632 277.668 134.249C279.065 134.852 280.018 135.333 280.543 135.681V146.335C278.685 145.002 276.627 143.805 274.344 142.764C272.059 141.713 269.621 141.186 267.013 141.186C265.311 141.186 264.081 141.511 263.308 142.172C262.548 142.832 262.167 143.638 262.167 144.599C262.167 145.496 262.548 146.268 263.308 146.928C264.081 147.589 265.447 148.384 267.405 149.323C270.909 150.967 273.694 152.444 275.799 153.755C277.891 155.063 279.537 156.587 280.723 158.298C281.92 160.011 282.512 162.158 282.512 164.71ZM339.174 157.559C339.174 161.455 338.446 164.766 336.991 167.509C335.536 170.261 333.612 172.433 331.216 174.022C328.833 175.623 326.247 176.774 323.484 177.468C320.718 178.173 317.955 178.52 315.201 178.52C311.351 178.52 307.614 177.86 303.967 176.551C300.329 175.243 297.285 173.014 294.834 169.859C292.384 166.713 291.164 162.606 291.164 157.559V132.458H304.861V154.011C304.861 157.012 305.297 159.484 306.16 161.442C307.021 163.4 308.219 164.833 309.763 165.74C311.298 166.648 313.12 167.104 315.214 167.104C317.227 167.104 319.007 166.657 320.562 165.763C322.107 164.866 323.315 163.446 324.176 161.499C325.039 159.551 325.475 157.079 325.475 154.079V132.458H339.174V157.559ZM393.932 177.915H379.214L375.634 169.859C374.324 166.904 373.138 164.744 372.085 163.378C371.044 162.014 370.016 161.139 369.019 160.759C368.024 160.38 366.748 160.189 365.17 160.189H363.626V177.915H349.927V132.458H373.24C376.998 132.458 380.088 133.219 382.482 134.752C384.889 136.285 386.623 138.142 387.686 140.336C388.75 142.519 389.275 144.599 389.275 146.57C389.275 148.864 388.828 150.8 387.944 152.389C387.059 153.977 386.131 155.132 385.146 155.857C384.162 156.576 383.054 157.268 381.835 157.917C383.299 158.768 384.507 159.786 385.459 160.95C386.411 162.125 387.697 164.488 389.344 168.045L393.932 177.915ZM375.309 146.826C375.309 144.724 374.615 143.257 373.24 142.43C371.863 141.6 369.624 141.186 366.512 141.186H363.626V152.131H366.581C369.927 152.131 372.219 151.761 373.451 151.036C374.695 150.295 375.309 148.898 375.309 146.826ZM450.055 177.915H436.021L432.316 168.717H412.575L408.805 177.915H394.77L414.87 132.458H430.022L450.055 177.915ZM429.172 160.794L422.513 144.208L415.787 160.794H429.172ZM505.439 177.915H493.219L469.65 152.602V177.915H456.087V132.458H468.24L491.742 157.639V132.458H505.439V177.915ZM557.524 174.513C555.644 175.499 553.719 176.282 551.761 176.874C549.79 177.468 547.81 177.895 545.807 178.14C543.803 178.398 541.733 178.52 539.595 178.52C535.635 178.52 532.086 177.973 528.951 176.874C525.819 175.79 523.1 174.179 520.795 172.041C518.49 169.914 516.754 167.42 515.613 164.565C514.46 161.711 513.889 158.578 513.889 155.165C513.889 151.258 514.572 147.834 515.926 144.891C517.281 141.947 519.171 139.508 521.611 137.562C524.05 135.613 526.826 134.182 529.937 133.252C533.048 132.324 536.338 131.854 539.786 131.854C544.944 131.854 550.798 132.994 557.334 135.29V147.342C555.085 145.943 552.858 144.779 550.662 143.849C548.459 142.921 545.874 142.463 542.908 142.463C540.256 142.463 537.793 142.988 535.499 144.041C533.205 145.082 531.359 146.58 529.961 148.528C528.56 150.475 527.856 152.747 527.856 155.354C527.856 157.65 528.471 159.753 529.692 161.667C530.911 163.58 532.613 165.091 534.794 166.221C536.965 167.351 539.415 167.912 542.147 167.912C544.363 167.912 546.444 167.643 548.413 167.104C550.384 166.568 552.039 165.976 553.383 165.326C554.727 164.666 556.102 163.894 557.524 162.986V174.513ZM601.001 177.915H566.746V132.458H600.442V141.589H580.445V149.917H599.526V159.048H580.445V168.784H601.001V177.915Z" fill="white"/>
</svg>
