<svg width="39" height="44" viewBox="0 0 39 44" fill="none" xmlns="http://www.w3.org/2000/svg">
<path d="M4.62155 43.7057C4.38498 43.7057 4.15686 43.6465 3.94564 43.5282C3.46405 43.2494 3.20214 42.7087 3.28662 42.1595L4.72294 32.4855C1.67288 28.9623 0 24.4928 0 19.8122C0 14.6414 2.01084 9.77486 5.66921 6.12493C9.31914 2.4581 14.1857 0.447266 19.3564 0.447266C24.5272 0.447266 29.3937 2.4581 33.0437 6.11648C36.702 9.77486 38.7129 14.633 38.7129 19.8037C38.7129 24.9744 36.702 29.841 33.0437 33.4909C29.3853 37.1493 24.5272 39.1601 19.3564 39.1601C16.9654 39.1601 14.6335 38.7293 12.4283 37.8844L5.46644 43.4099C5.22142 43.6043 4.92571 43.7057 4.62155 43.7057ZM19.3564 3.15092C10.1725 3.15092 2.70365 10.6197 2.70365 19.8037C2.70365 24.0197 4.28359 28.0414 7.14777 31.1252C7.42659 31.4294 7.55332 31.8349 7.49418 32.2405L6.47186 39.1601L11.3722 35.2737C11.7609 34.961 12.2932 34.8935 12.7494 35.0962C14.8447 36.0003 17.0668 36.4565 19.3649 36.4565C28.5488 36.4565 36.0177 28.9877 36.0177 19.8037C36.0092 10.6197 28.5404 3.15092 19.3564 3.15092ZM13.8816 22.0765C13.8816 21.333 13.2732 20.7246 12.5297 20.7246H12.327C11.5834 20.7246 10.9751 21.333 10.9751 22.0765C10.9751 22.82 11.5834 23.4283 12.327 23.4283H12.5297C13.2732 23.4283 13.8816 22.82 13.8816 22.0765ZM20.8097 22.0765C20.8097 21.333 20.2013 20.7246 19.4578 20.7246H19.2551C18.5116 20.7246 17.9032 21.333 17.9032 22.0765C17.9032 22.82 18.5116 23.4283 19.2551 23.4283H19.4578C20.2098 23.4283 20.8097 22.82 20.8097 22.0765ZM27.7378 22.0765C27.7378 21.333 27.1294 20.7246 26.3859 20.7246H26.1832C25.4397 20.7246 24.8313 21.333 24.8313 22.0765C24.8313 22.82 25.4397 23.4283 26.1832 23.4283H26.3859C27.1379 23.4283 27.7378 22.82 27.7378 22.0765Z" fill="white"/>
</svg>
