<svg width="49" height="15" viewBox="0 0 49 15" fill="none" xmlns="http://www.w3.org/2000/svg">
<path fill-rule="evenodd" clip-rule="evenodd" d="M48.7249 5.91994C49.072 6.41661 49.107 7.19939 48.7385 7.80604C48.4096 8.34785 46.441 10.427 45.8003 11.0951C45.245 11.6755 44.4955 12.2566 43.7578 12.2566H28.3112C26.2236 12.2566 26.0977 11.5488 26.0977 9.94862V3.45732C26.0977 1.82298 26.58 1.35059 28.0056 1.35059H43.7578C44.4955 1.35059 45.152 1.72716 45.9061 2.49392C46.5462 3.14458 48.4586 5.53783 48.7249 5.91994Z" fill="white"/>
<path fill-rule="evenodd" clip-rule="evenodd" d="M48.7249 5.91994C49.072 6.41661 49.107 7.19939 48.7385 7.80604C48.4096 8.34785 46.441 10.427 45.8003 11.0951C45.245 11.6755 44.4955 12.2566 43.7578 12.2566H28.3112C26.2236 12.2566 26.0977 11.5488 26.0977 9.94862V3.45732C26.0977 1.82298 26.58 1.35059 28.0056 1.35059H43.7578C44.4955 1.35059 45.152 1.72716 45.9061 2.49392C46.5462 3.14458 48.4586 5.53783 48.7249 5.91994Z" fill="white"/>
<path fill-rule="evenodd" clip-rule="evenodd" d="M29.598 3.86057V3.81783C29.598 3.60913 29.5805 3.40283 29.2385 3.40283H27.9476C27.6476 3.40283 27.6286 3.56875 27.6286 3.82655V5.54205C28.257 4.64349 28.9538 4.22599 29.598 3.86057ZM38.2579 10.0594V9.96725H38.2589V5.83832C38.2589 4.1068 37.4977 3.24113 35.9754 3.24131C35.5535 3.23734 35.1388 3.35071 34.7776 3.56875C34.4152 3.78716 34.067 4.09225 33.7331 4.48401C33.5689 4.05828 33.3214 3.74474 32.9904 3.54339C32.6595 3.34203 32.2306 3.24134 31.7039 3.24131C31.0943 3.24131 30.3856 3.45487 29.8833 3.8681C29.7709 3.98067 27.6283 5.66705 27.6283 7.39902V10.0424C27.6283 10.1265 27.5878 10.4455 27.9452 10.4455H29.2891C29.7069 10.4455 29.6661 10.1719 29.6661 10.0594V5.78401C29.8929 5.48311 30.3564 4.73999 31.1093 4.73999C31.3982 4.73999 31.6063 4.83778 31.7335 5.03336C31.8607 5.22893 31.9246 5.55686 31.9252 6.01712V9.35639H31.9236V10.0425C31.9236 10.1266 31.883 10.4456 32.2403 10.4456H33.567C33.9851 10.4456 33.9443 10.172 33.9443 10.0594V9.96734H33.9458V5.78419C34.1889 5.48329 34.6732 4.74017 35.3886 4.74017C35.683 4.74017 35.8953 4.83796 36.0255 5.03354C36.1557 5.22912 36.2208 5.55704 36.2206 6.01731V9.35657H36.2193V10.0427C36.2193 10.1268 36.1789 10.4457 36.5364 10.4457H37.8807C38.2988 10.4456 38.2579 10.1719 38.2579 10.0594ZM45.6592 8.38065C45.1815 9.66622 44.0368 10.3847 42.6185 10.3847C40.5641 10.3847 39.2071 8.98476 39.2071 6.88515C39.2071 4.81086 40.6159 3.30733 42.5545 3.30733C44.4723 3.30733 45.7586 4.64294 45.8403 6.79441C45.8507 7.06931 45.7704 7.31218 45.4269 7.31218H41.0677C41.0936 8.46585 41.6498 9.08816 42.6317 9.08816C43.2306 9.08816 43.5854 8.82995 43.8943 8.32393C44.0286 8.10375 44.304 8.116 44.304 8.116H45.4269C45.6102 8.11586 45.6915 8.29499 45.6592 8.38051V8.38065ZM42.5545 4.64213C41.7397 4.64213 41.1712 5.21239 41.0677 6.14616H43.9887C43.9111 5.3294 43.4715 4.64213 42.5545 4.64213Z" fill="#F58635"/>
<path fill-rule="evenodd" clip-rule="evenodd" d="M8.02341 1.41019C7.85073 1.13502 7.62674 0.895651 7.36364 0.705131C7.10053 0.520278 6.81161 0.375339 6.50613 0.275018C6.16685 0.164506 5.81641 0.0917005 5.4612 0.0579203C5.05482 0.0179576 4.64671 -0.00134951 4.23841 7.32383e-05H0.660037C0.338268 7.32383e-05 0.000983228 0.21141 0.000983228 0.609943V6.4124C0.454281 7.37947 1.33728 8.40616 2.3412 8.89684V7.74606C2.3412 7.13882 2.79849 7.00317 2.98764 7.00317H4.04568C5.50308 7.00317 6.61543 6.6971 7.38274 6.085C8.15004 5.47377 8.53365 4.56586 8.53365 3.36126C8.53583 3.01319 8.49545 2.66617 8.41346 2.3279C8.33193 2.00358 8.20031 1.69395 8.02341 1.41019ZM5.93818 4.39017C5.81464 4.60461 5.63035 4.77765 5.40862 4.88754C5.16829 5.00219 4.90868 5.07097 4.64313 5.09035C4.35392 5.11612 4.05528 5.12905 3.74718 5.12909H2.74173C2.49577 5.12909 2.3412 4.92887 2.3412 4.63351V2.2612C2.3412 1.99515 2.51465 1.88354 2.72263 1.88354H3.74718C4.08093 1.88354 4.39391 1.89317 4.68614 1.91244C4.94915 1.92444 5.20745 1.9868 5.447 2.09615C5.66052 2.19778 5.83723 2.36317 5.95279 2.5695C6.07457 2.78168 6.13546 3.08113 6.13555 3.46783C6.13555 3.86047 6.06976 4.16792 5.93818 4.39017ZM2.3412 9.27183C1.23706 8.83065 0.496839 8.30435 0.000983228 7.78259V10.5838C0.000983228 10.5838 -0.0398506 11.0406 0.40478 11.0406H1.96594C2.39419 11.0406 2.34138 10.5838 2.34138 10.5838V9.27183H2.3412ZM24.4658 3.05256H23.0647C22.78 3.05256 22.5924 3.17224 22.4795 3.48539C22.3665 3.79854 20.8815 7.93462 20.8815 7.93462C20.8815 7.93462 19.4609 3.88397 19.3491 3.57032C19.2373 3.25668 19.0537 3.05256 18.723 3.05256H17.4356C16.9814 3.05256 16.9814 3.4093 17.0377 3.55077C17.0834 3.6651 18.8464 8.49735 19.5179 10.3382C19.6762 10.7729 19.7388 10.9036 19.7437 11.0646C19.7486 11.2257 19.5849 11.5637 19.4718 11.7577C19.4198 11.8462 19.3601 11.9301 19.2935 12.0082C20.6099 11.614 22.1271 10.1839 22.9117 8.63451C23.6875 6.47528 24.7106 3.62295 24.755 3.47704C24.8264 3.24071 24.8257 3.05256 24.4658 3.05256ZM18.2791 12.419C18.1575 12.4169 18.0361 12.4082 17.9155 12.3928C17.7678 12.3732 17.4914 12.4008 17.4914 12.6428V13.7246C17.4914 14.1375 17.6888 14.165 17.7975 14.1895C18.1244 14.2576 18.4579 14.2899 18.7918 14.2856C19.2345 14.2856 19.6196 14.2051 19.9472 14.044C20.2781 13.8803 20.5729 13.6521 20.8143 13.3728C21.0805 13.0618 21.3055 12.7178 21.4836 12.3492C21.6792 11.9532 21.8669 11.517 22.0469 11.0405C22.0469 11.0405 22.124 10.8252 22.251 10.4724C21.8646 10.8626 20.043 12.5899 18.2791 12.419ZM16.1751 4.33677C16.099 4.15596 15.9952 3.98816 15.8673 3.83946C15.7398 3.69673 15.594 3.57161 15.4335 3.46742C15.2603 3.35484 15.0766 3.2594 14.885 3.18245C14.6892 3.10603 14.488 3.04474 14.2829 2.99916C14.0498 2.9481 13.8132 2.9142 13.5751 2.89775C13.318 2.87861 13.029 2.86896 12.7081 2.86881C10.5856 2.86881 9.377 3.53964 9.08232 4.88132C8.98649 5.29764 9.39832 5.3221 9.39832 5.3221H10.704C11.0449 5.3221 11.0303 5.21226 11.1957 4.90401C11.2552 4.73627 11.3625 4.58955 11.5042 4.48182C11.7548 4.28878 12.1304 4.19225 12.631 4.19222C13.1126 4.19222 13.4625 4.28549 13.6808 4.47202C13.8989 4.65855 14.0273 4.94189 14.066 5.3221C14.066 5.76296 13.9285 6.0571 13.3956 6.0571C12.0963 6.00992 10.7001 6.15692 9.91373 6.60776C9.12737 7.05861 8.68283 7.94002 8.68283 8.88659C8.68283 9.27269 8.75184 9.61075 8.88995 9.9008C9.02374 10.1851 9.22156 10.4347 9.46787 10.6299C9.72925 10.8338 10.0288 10.9832 10.3489 11.0694C10.7128 11.1692 11.0886 11.218 11.4659 11.2146C12.031 11.2146 12.5302 11.1437 12.9637 11.002C13.397 10.8605 14.0676 10.394 14.153 10.326V10.5746C14.153 10.8211 14.228 11.0408 14.522 11.0408H16.0404C16.3477 11.0408 16.4161 10.8211 16.4161 10.5506V5.87285C16.4187 5.58207 16.3994 5.29152 16.3584 5.00364C16.3258 4.77448 16.2642 4.55039 16.1751 4.33677ZM14.1046 8.92311C14.1046 8.92311 13.7125 9.73756 12.3132 9.73756C11.9282 9.73756 11.6152 9.65067 11.3743 9.4769C11.1332 9.30313 11.0128 9.03264 11.013 8.6655C11.013 8.18865 11.2089 7.85205 11.6007 7.65573C11.9921 7.45955 12.7758 7.34748 13.363 7.36123C13.9503 7.37498 14.1046 7.74606 14.1046 8.00227V8.92329V8.92311Z" fill="white"/>
</svg>
