<svg width="10" height="13" viewBox="0 0 10 13" fill="none" xmlns="http://www.w3.org/2000/svg">
<path d="M9.82747 3.81012C9.48168 2.48495 8.65424 1.37557 7.49831 0.690134C6.34237 0.00470164 4.99378 -0.17808 3.70447 0.177329C2.41516 0.532739 1.33579 1.38318 0.668905 2.57127C-0.642637 4.90682 0.0365987 7.86941 2.16322 9.37228L0.46884 12.3907C0.360162 12.5862 0.424381 12.8324 0.614567 12.9467C0.676315 12.9848 0.745474 13 0.812162 13C0.948009 13 1.08139 12.9264 1.15548 12.7969L2.84987 9.77847C3.53651 10.1161 4.26762 10.276 4.99131 10.276C6.72028 10.276 8.40478 9.35451 9.32854 7.70694C9.99543 6.52139 10.1733 5.13783 9.82747 3.81012ZM8.64437 7.30329C7.48349 9.36975 4.90486 10.0806 2.89433 8.8874C0.883791 7.69424 0.194675 5.0439 1.35308 2.97999C1.91623 1.97976 2.8227 1.26387 3.90948 0.964308C4.27256 0.865301 4.64058 0.814528 5.00613 0.814528C5.73477 0.814528 6.45599 1.01 7.10312 1.39588C8.07628 1.97469 8.7728 2.90637 9.06426 4.02337C9.35571 5.13783 9.20504 6.30307 8.64437 7.30329Z" fill="#373435"/>
</svg>
