<svg width="16" height="12" viewBox="0 0 16 12" fill="none" xmlns="http://www.w3.org/2000/svg">
<path d="M8.28964 0.0557836C8.13022 -0.0284362 7.94073 -0.0164048 7.79334 0.0858621L2.74617 3.55692H1.6874C0.757978 3.55692 0 4.3149 0 5.24433V6.36325C0 7.29267 0.757978 8.05065 1.6874 8.05065H2.74617L7.79334 11.5247C7.87455 11.5819 7.9708 11.6089 8.06705 11.6089C8.14225 11.6089 8.22046 11.5909 8.28964 11.5548C8.44905 11.4706 8.5453 11.3082 8.5453 11.1277V0.47989C8.5453 0.302427 8.44604 0.136996 8.28964 0.0557836ZM0.962512 6.36325V5.24433C0.962512 4.84428 1.28736 4.51643 1.69041 4.51643H2.41831V7.08814H1.6874C1.28736 7.08814 0.962512 6.76329 0.962512 6.36325ZM7.58279 10.2133L3.37481 7.31673V4.29084L7.58279 1.39428V10.2133ZM15.3942 5.80379C15.3942 7.21747 14.9851 8.58003 14.2121 9.74708C14.1188 9.88544 13.9654 9.96364 13.812 9.96364C13.7218 9.96364 13.6286 9.93657 13.5474 9.88243C13.3248 9.73505 13.2646 9.43727 13.412 9.21469C14.7655 7.17536 14.7655 4.43221 13.412 2.39288C13.2646 2.1703 13.3248 1.87253 13.5474 1.72514C13.7699 1.57776 14.0677 1.63791 14.2151 1.86049C14.9851 3.02754 15.3942 4.3901 15.3942 5.80379ZM11.4208 2.92828C12.0134 3.77048 12.3262 4.76307 12.3262 5.80379C12.3262 6.8445 12.0134 7.83709 11.4208 8.67929C11.3276 8.81164 11.1772 8.88382 11.0268 8.88382C10.9305 8.88382 10.8343 8.85675 10.7501 8.7966C10.5335 8.6432 10.4824 8.34241 10.6328 8.12585C11.6103 6.73923 11.6103 4.87436 10.6328 3.48473C10.4794 3.26817 10.5305 2.96738 10.7501 2.81398C10.9666 2.66058 11.2674 2.71171 11.4208 2.92828Z" fill="white"/>
</svg>
