<svg width="30" height="29" viewBox="0 0 30 29" fill="none" xmlns="http://www.w3.org/2000/svg">
<path d="M25.1021 9.96728C26.7207 9.05213 27.8162 7.31501 27.8162 5.32644C27.8162 2.38946 25.427 0 22.4898 0C19.3584 0 16.857 2.71525 17.1934 5.89763C15.6887 5.13596 13.9035 5.13567 12.3982 5.89763C12.7347 2.72223 10.2396 0 7.1018 0C4.16518 0 1.77536 2.38946 1.77536 5.32644C1.77536 7.31507 2.87086 9.05213 4.49002 9.96728C1.86255 11.0101 0 13.5771 0 16.5716V23.0816C0 23.4084 0.264759 23.6736 0.591906 23.6736H7.69371V28.408C7.69371 28.7349 7.959 29 8.28561 29H21.3058C21.6329 29 21.8977 28.7349 21.8977 28.408V23.6736H29.0001C29.3267 23.6736 29.5914 23.4085 29.5914 23.0816V16.5716C29.5914 13.5771 27.7289 11.0101 25.1021 9.96728ZM22.4897 1.18352C24.7743 1.18352 26.6321 3.04204 26.6321 5.32638C26.6321 7.61096 24.7742 9.46948 22.4897 9.46948C21.3687 9.46948 20.3241 9.02952 19.5391 8.23122C19.3216 7.80688 19.0489 7.4161 18.731 7.06694C18.4772 6.52008 18.3466 5.9351 18.3466 5.32638C18.3466 3.0421 20.2051 1.18352 22.4897 1.18352ZM18.9362 10.7529C18.8628 13.0678 16.9898 14.796 14.796 14.796C12.5033 14.796 10.6529 12.9267 10.6529 10.6529C10.6529 8.36883 12.5113 6.51031 14.796 6.51031C17.1007 6.51031 18.9928 8.40985 18.9362 10.7529ZM2.95911 5.32644C2.95911 3.0421 4.81764 1.18357 7.10162 1.18357C9.38626 1.18357 11.2447 3.0421 11.2447 5.32644C11.2447 5.93516 11.1147 6.52014 10.8603 7.067C10.5424 7.41616 10.2696 7.80694 10.0522 8.23128C9.26717 9.02958 8.22317 9.46954 7.10162 9.46954C4.8177 9.46954 2.95911 7.61096 2.95911 5.32644ZM1.18328 22.4897V16.5716C1.18328 13.308 3.83839 10.6529 7.10162 10.6529C7.93816 10.6529 8.74049 10.8222 9.49316 11.1558C9.6602 12.9317 10.7025 14.4567 12.1835 15.2937C9.55614 16.3365 7.69365 18.9038 7.69365 21.898V22.4897H1.18328ZM20.7144 27.8165H8.87758V21.8981C8.87758 18.6345 11.5327 15.9797 14.796 15.9797C18.0593 15.9797 20.7144 18.6347 20.7144 21.8981V27.8165ZM28.4081 22.4897H21.8977V21.898C21.8977 18.9038 20.0351 16.3365 17.4078 15.2937C18.8888 14.4566 19.9312 12.9317 20.0982 11.1558C20.8509 10.8222 21.6538 10.6529 22.4897 10.6529C25.753 10.6529 28.408 13.308 28.408 16.5716V22.4897H28.4081Z" fill="white"/>
</svg>
