<svg width="36" height="36" viewBox="0 0 36 36" fill="white" xmlns="http://www.w3.org/2000/svg">
<path d="M18 0C8.07188 0 0 8.07188 0 18C0 27.9281 8.07188 36 18 36C27.9281 36 36 27.9281 36 18C36 8.07188 27.9281 0 18 0ZM18 33.75C9.31641 33.75 2.25 26.6836 2.25 18C2.25 9.31641 9.31641 2.25 18 2.25C26.6836 2.25 33.75 9.31641 33.75 18C33.75 26.6836 26.6836 33.75 18 33.75ZM27.9773 17.2055C28.1883 17.4164 28.3078 17.7047 28.3078 18C28.3078 18.2953 28.1883 18.5836 27.9773 18.7945L22.1344 24.6375C21.9164 24.8555 21.6281 24.968 21.3398 24.968C21.0516 24.968 20.7633 24.8555 20.5453 24.6375C20.1094 24.2016 20.1094 23.4844 20.5453 23.0484L24.4688 19.125H8.81016C8.19141 19.125 7.68516 18.6188 7.68516 18C7.68516 17.3813 8.19141 16.875 8.81016 16.875H24.4688L20.5453 12.9516C20.1094 12.5156 20.1094 11.7984 20.5453 11.3625C20.9813 10.9266 21.6984 10.9266 22.1344 11.3625L27.9773 17.2055Z" fill="white"/>
</svg>
